<svg id="Layer_3" enable-background="new 0 0 64 64" height="512" viewBox="0 0 64 64" width="512" xmlns="http://www.w3.org/2000/svg"><path d="m10 2v56c0-2.209 1.791-4 4-4h40v-52z" fill="#98775a"/><path d="m14 54h37v-52h-41v56c0-2.209 1.791-4 4-4z" fill="#cb9e78"/><path d="m22 40h28v8h-28z" fill="#ccc"/><path d="m22 40h25v8h-25z" fill="#f1f1f1"/><path d="m46 28v-4h-2.262c-.178-.691-.442-1.346-.787-1.951l2.049-2.049-3-3-2.049 2.049c-.605-.345-1.26-.609-1.951-.787v-2.262h-4v2.262c-.691.178-1.346.442-1.951.787l-2.049-2.049-3 3 2.049 2.049c-.345.605-.609 1.26-.787 1.951h-2.262v4h2.262c.178.691.442 1.346.787 1.951l-2.049 2.049 3 3 2.049-2.049c.605.345 1.26.609 1.951.787v2.262h4v-2.262c.691-.178 1.346-.442 1.951-.787l2.049 2.049 3-3-2.049-2.049c.345-.605.609-1.26.787-1.951z" fill="#f1f1f1"/><circle cx="36" cy="26" fill="#8b8a8b" r="4"/><ellipse cx="34.5" cy="26" fill="#bab8b9" rx="2.5" ry="3.703"/><path d="m40 2v10l4-4 4 4v-10z" fill="#f8cf6a"/><path d="m54 62h-40c-2.209 0-4-1.791-4-4 0-2.209 1.791-4 4-4h40l-2.293 2.293c-.453.453-.707 1.067-.707 1.707 0 .64.254 1.254.707 1.707z" fill="#bab8b9"/><path d="m51 58c0-.349.082-.688.224-1h-35.224v2h35.224c-.142-.312-.224-.651-.224-1z" fill="#8b8a8b"/><path d="m17 2h2v52h-2z" fill="#98775a"/><path d="m25 43h22v2h-22z" fill="#8b8a8b"/></svg>