<svg xmlns="http://www.w3.org/2000/svg" viewBox="0 0 15.02 15.02"><defs><style>.cls-1{fill:#00bcd4;}.cls-2{fill:#37474f;}.cls-3{fill:#4dd0e1;}.cls-4{fill:#894d36;}.cls-5{fill:#b76648;}.cls-6{fill:#c7fc8a;}</style></defs><title>bow</title><g id="Layer_2" data-name="Layer 2"><g id="Layer_1-2" data-name="Layer 1"><g id="_Group_" data-name="&lt;Group&gt;"><polygon class="cls-1" points="14.01 2.02 14 1.01 15.01 1 15.02 2.02 14.01 2.02"/><rect class="cls-1" x="14.01" y="1.01" width="1" height="1"/><polygon class="cls-2" points="13.01 4.02 13 3.01 14.01 3 14.02 4.02 13.01 4.02"/><rect class="cls-2" x="13.01" y="3.01" width="1" height="1"/><polygon class="cls-1" points="13.01 3.02 13 2.01 14.01 2 14.02 3.02 13.01 3.02"/><rect class="cls-1" x="13.01" y="2.01" width="1" height="1"/><polygon class="cls-3" points="13.01 2.02 13 1.01 14.01 1 14.02 2.02 13.01 2.02"/><rect class="cls-3" x="13.01" y="1.01" width="1" height="1"/><polygon class="cls-1" points="13.01 1.02 13 0.01 14.01 0 14.02 1.02 13.01 1.02"/><rect class="cls-1" x="13.01" y="0.01" width="1" height="1"/><polygon class="cls-2" points="12.01 6.02 12 5.01 13.01 5 13.02 6.02 12.01 6.02"/><rect class="cls-2" x="12.01" y="5.01" width="1" height="1"/><polygon class="cls-2" points="12.01 5.02 12 4.01 13.01 4 13.02 5.02 12.01 5.02"/><rect class="cls-2" x="12.01" y="4.01" width="1" height="1"/><polygon class="cls-1" points="12.01 3.02 12 2.01 13.01 2 13.02 3.02 12.01 3.02"/><rect class="cls-1" x="12.01" y="2.01" width="1" height="1"/><polygon class="cls-3" points="12.01 2.02 12 1.01 13.01 1 13.02 2.02 12.01 2.02"/><rect class="cls-3" x="12.01" y="1.01" width="1" height="1"/><polygon class="cls-1" points="12.01 1.02 12 0.01 13.01 0 13.02 1.02 12.01 1.02"/><rect class="cls-1" x="12.01" y="0.01" width="1" height="1"/><polygon class="cls-2" points="11.01 7.02 11 6.01 12.01 6 12.02 7.02 11.01 7.02"/><rect class="cls-2" x="11.01" y="6.01" width="1" height="1"/><polygon class="cls-1" points="11.01 3.02 11 2.01 12.01 2 12.02 3.02 11.01 3.02"/><rect class="cls-1" x="11.01" y="2.01" width="1" height="1"/><polygon class="cls-3" points="11.01 2.02 11 1.01 12.01 1 12.02 2.02 11.01 2.02"/><rect class="cls-3" x="11.01" y="1.01" width="1" height="1"/><polygon class="cls-1" points="11.01 1.02 11 0.01 12.01 0 12.02 1.02 11.01 1.02"/><rect class="cls-1" x="11.01" y="0.01" width="1" height="1"/><polygon class="cls-2" points="10.01 9.02 10 8.01 11.01 8 11.02 9.02 10.01 9.02"/><rect class="cls-2" x="10.01" y="8.01" width="1" height="1"/><polygon class="cls-2" points="10.01 8.02 10 7.01 11.01 7 11.02 8.02 10.01 8.02"/><rect class="cls-2" x="10.01" y="7.01" width="1" height="1"/><polygon class="cls-1" points="10.01 3.02 10 2.01 11.01 2 11.02 3.02 10.01 3.02"/><rect class="cls-1" x="10.01" y="2.01" width="1" height="1"/><polygon class="cls-3" points="10.01 2.02 10 1.01 11.01 1 11.02 2.02 10.01 2.02"/><rect class="cls-3" x="10.01" y="1.01" width="1" height="1"/><polygon class="cls-1" points="10.01 1.02 10 0.01 11.01 0 11.02 1.02 10.01 1.02"/><rect class="cls-1" x="10.01" y="0.01" width="1" height="1"/><polygon class="cls-2" points="9.01 10.02 9 9.01 10.01 9 10.02 10.02 9.01 10.02"/><rect class="cls-2" x="9.01" y="9.01" width="1" height="1"/><polygon class="cls-4" points="9.01 9.02 9 8.01 10.01 8 10.02 9.02 9.01 9.02"/><rect class="cls-4" x="9.01" y="8.01" width="1" height="1"/><polygon class="cls-2" points="9.01 4.02 9 3.01 10.01 3 10.02 4.02 9.01 4.02"/><rect class="cls-2" x="9.01" y="3.01" width="1" height="1"/><polygon class="cls-5" points="9.01 3.02 9 2.01 10.01 2 10.02 3.02 9.01 3.02"/><rect class="cls-5" x="9.01" y="2.01" width="1" height="1"/><polygon class="cls-2" points="9.01 2.02 9 1.01 10.01 1 10.02 2.02 9.01 2.02"/><rect class="cls-2" x="9.01" y="1.01" width="1" height="1"/><polygon class="cls-2" points="8.01 11.02 8 10.01 9.01 10 9.02 11.02 8.01 11.02"/><rect class="cls-2" x="8.01" y="10.01" width="1" height="1"/><polygon class="cls-4" points="8.01 9.02 8 8.01 9.01 8 9.02 9.02 8.01 9.02"/><rect class="cls-4" x="8.01" y="8.01" width="1" height="1"/><polygon class="cls-4" points="8.01 8.02 8 7.01 9.01 7 9.02 8.02 8.01 8.02"/><rect class="cls-4" x="8.01" y="7.01" width="1" height="1"/><polygon class="cls-2" points="8.01 4.02 8 3.01 9.01 3 9.02 4.02 8.01 4.02"/><rect class="cls-2" x="8.01" y="3.01" width="1" height="1"/><polygon class="cls-5" points="8.01 3.02 8 2.01 9.01 2 9.02 3.02 8.01 3.02"/><rect class="cls-5" x="8.01" y="2.01" width="1" height="1"/><polygon class="cls-2" points="8.01 2.02 8 1.01 9.01 1 9.02 2.02 8.01 2.02"/><rect class="cls-2" x="8.01" y="1.01" width="1" height="1"/><polygon class="cls-2" points="7.01 11.02 7 10.01 8.01 10 8.02 11.02 7.01 11.02"/><rect class="cls-2" x="7.01" y="10.01" width="1" height="1"/><polygon class="cls-4" points="7.01 8.02 7 7.01 8.01 7 8.02 8.02 7.01 8.02"/><rect class="cls-4" x="7.01" y="7.01" width="1" height="1"/><polygon class="cls-4" points="7.01 7.02 7 6.01 8.01 6 8.02 7.02 7.01 7.02"/><rect class="cls-4" x="7.01" y="6.01" width="1" height="1"/><polygon class="cls-2" points="7.01 4.02 7 3.01 8.01 3 8.02 4.02 7.01 4.02"/><rect class="cls-2" x="7.01" y="3.01" width="1" height="1"/><polygon class="cls-5" points="7.01 3.02 7 2.01 8.01 2 8.02 3.02 7.01 3.02"/><rect class="cls-5" x="7.01" y="2.01" width="1" height="1"/><polygon class="cls-2" points="7.01 2.02 7 1.01 8.01 1 8.02 2.02 7.01 2.02"/><rect class="cls-2" x="7.01" y="1.01" width="1" height="1"/><polygon class="cls-2" points="6.01 12.02 6 11.01 7.01 11 7.02 12.02 6.01 12.02"/><rect class="cls-2" x="6.01" y="11.01" width="1" height="1"/><polygon class="cls-4" points="6.01 7.02 6 6.01 7.01 6 7.02 7.02 6.01 7.02"/><rect class="cls-4" x="6.01" y="6.01" width="1" height="1"/><polygon class="cls-4" points="6.01 6.02 6 5.01 7.01 5 7.02 6.02 6.01 6.02"/><rect class="cls-4" x="6.01" y="5.01" width="1" height="1"/><polygon class="cls-2" points="6.01 5.02 6 4.01 7.01 4 7.02 5.02 6.01 5.02"/><rect class="cls-2" x="6.01" y="4.01" width="1" height="1"/><polygon class="cls-5" points="6.01 4.02 6 3.01 7.01 3 7.02 4.02 6.01 4.02"/><rect class="cls-5" x="6.01" y="3.01" width="1" height="1"/><polygon class="cls-2" points="6.01 3.02 6 2.01 7.01 2 7.02 3.02 6.01 3.02"/><rect class="cls-2" x="6.01" y="2.01" width="1" height="1"/><polygon class="cls-2" points="5.01 13.02 5 12.01 6.01 12 6.02 13.02 5.01 13.02"/><rect class="cls-2" x="5.01" y="12.01" width="1" height="1"/><polygon class="cls-4" points="5.01 6.02 5 5.01 6.01 5 6.02 6.02 5.01 6.02"/><rect class="cls-4" x="5.01" y="5.01" width="1" height="1"/><polygon class="cls-4" points="5.01 5.02 5 4.01 6.01 4 6.02 5.02 5.01 5.02"/><rect class="cls-4" x="5.01" y="4.01" width="1" height="1"/><polygon class="cls-5" points="5.01 4.02 5 3.01 6.01 3 6.02 4.02 5.01 4.02"/><rect class="cls-5" x="5.01" y="3.01" width="1" height="1"/><polygon class="cls-2" points="5.01 3.02 5 2.01 6.01 2 6.02 3.02 5.01 3.02"/><rect class="cls-2" x="5.01" y="2.01" width="1" height="1"/><polygon class="cls-2" points="4.01 13.02 4 12.01 5.01 12 5.02 13.02 4.01 13.02"/><rect class="cls-2" x="4.01" y="12.01" width="1" height="1"/><polygon class="cls-2" points="4.01 7.02 4 6.01 5.01 6 5.02 7.02 4.01 7.02"/><rect class="cls-2" x="4.01" y="6.01" width="1" height="1"/><polygon class="cls-2" points="4.01 6.02 4 5.01 5.01 5 5.02 6.02 4.01 6.02"/><rect class="cls-2" x="4.01" y="5.01" width="1" height="1"/><polygon class="cls-4" points="4.01 5.02 4 4.01 5.01 4 5.02 5.02 4.01 5.02"/><rect class="cls-4" x="4.01" y="4.01" width="1" height="1"/><polygon class="cls-4" points="4.01 4.02 4 3.01 5.01 3 5.02 4.02 4.01 4.02"/><rect class="cls-4" x="4.01" y="3.01" width="1" height="1"/><polygon class="cls-2" points="3.01 14.02 3 13.01 4.01 13 4.02 14.02 3.01 14.02"/><rect class="cls-2" x="3.01" y="13.01" width="1" height="1"/><polygon class="cls-2" points="3.01 10.02 3 9.01 4.01 9 4.02 10.02 3.01 10.02"/><rect class="cls-2" x="3.01" y="9.01" width="1" height="1"/><polygon class="cls-2" points="3.01 9.02 3 8.01 4.01 8 4.02 9.02 3.01 9.02"/><rect class="cls-2" x="3.01" y="8.01" width="1" height="1"/><polygon class="cls-2" points="3.01 8.02 3 7.01 4.01 7 4.02 8.02 3.01 8.02"/><rect class="cls-2" x="3.01" y="7.01" width="1" height="1"/><polygon class="cls-5" points="3.01 7.02 3 6.01 4.01 6 4.02 7.02 3.01 7.02"/><rect class="cls-5" x="3.01" y="6.01" width="1" height="1"/><polygon class="cls-5" points="3.01 6.02 3 5.01 4.01 5 4.02 6.02 3.01 6.02"/><rect class="cls-5" x="3.01" y="5.01" width="1" height="1"/><polygon class="cls-2" points="3.01 5.02 3 4.01 4.01 4 4.02 5.02 3.01 5.02"/><rect class="cls-2" x="3.01" y="4.01" width="1" height="1"/><polygon class="cls-4" points="3.01 4.02 3 3.01 4.01 3 4.02 4.02 3.01 4.02"/><rect class="cls-4" x="3.01" y="3.01" width="1" height="1"/><polygon class="cls-4" points="3.01 3.02 3 2.01 4.01 2 4.02 3.02 3.01 3.02"/><rect class="cls-4" x="3.01" y="2.01" width="1" height="1"/><polygon class="cls-1" points="2.01 14.02 2 13.01 3.01 13 3.02 14.02 2.01 14.02"/><rect class="cls-1" x="2.01" y="13.01" width="1" height="1"/><polygon class="cls-1" points="2.01 13.02 2 12.01 3.01 12 3.02 13.02 2.01 13.02"/><rect class="cls-1" x="2.01" y="12.01" width="1" height="1"/><polygon class="cls-1" points="2.01 12.02 2 11.01 3.01 11 3.02 12.02 2.01 12.02"/><rect class="cls-1" x="2.01" y="11.01" width="1" height="1"/><polygon class="cls-1" points="2.01 11.02 2 10.01 3.01 10 3.02 11.02 2.01 11.02"/><rect class="cls-1" x="2.01" y="10.01" width="1" height="1"/><polygon class="cls-5" points="2.01 10.02 2 9.01 3.01 9 3.02 10.02 2.01 10.02"/><rect class="cls-5" x="2.01" y="9.01" width="1" height="1"/><polygon class="cls-5" points="2.01 9.02 2 8.01 3.01 8 3.02 9.02 2.01 9.02"/><rect class="cls-5" x="2.01" y="8.01" width="1" height="1"/><polygon class="cls-5" points="2.01 8.02 2 7.01 3.01 7 3.02 8.02 2.01 8.02"/><rect class="cls-5" x="2.01" y="7.01" width="1" height="1"/><polygon class="cls-2" points="2.01 7.02 2 6.01 3.01 6 3.02 7.02 2.01 7.02"/><rect class="cls-2" x="2.01" y="6.01" width="1" height="1"/><polygon class="cls-2" points="2.01 6.02 2 5.01 3.01 5 3.02 6.02 2.01 6.02"/><rect class="cls-2" x="2.01" y="5.01" width="1" height="1"/><polygon class="cls-4" points="2.01 3.02 2 2.01 3.01 2 3.02 3.02 2.01 3.02"/><rect class="cls-4" x="2.01" y="2.01" width="1" height="1"/><polygon class="cls-4" points="2.01 2.02 2 1.01 3.01 1 3.02 2.02 2.01 2.02"/><rect class="cls-4" x="2.01" y="1.01" width="1" height="1"/><polygon class="cls-1" points="1.01 15.02 1 14.01 2.01 14 2.02 15.02 1.01 15.02"/><rect class="cls-1" x="1.01" y="14.01" width="1" height="1"/><polygon class="cls-3" points="1.01 14.02 1 13.01 2.01 13 2.02 14.02 1.01 14.02"/><rect class="cls-3" x="1.01" y="13.01" width="1" height="1"/><polygon class="cls-3" points="1.01 13.02 1 12.01 2.01 12 2.02 13.02 1.01 13.02"/><rect class="cls-3" x="1.01" y="12.01" width="1" height="1"/><polygon class="cls-3" points="1.01 12.02 1 11.01 2.01 11 2.02 12.02 1.01 12.02"/><rect class="cls-3" x="1.01" y="11.01" width="1" height="1"/><polygon class="cls-3" points="1.01 11.02 1 10.01 2.01 10 2.02 11.02 1.01 11.02"/><rect class="cls-3" x="1.01" y="10.01" width="1" height="1"/><polygon class="cls-2" points="1.01 10.02 1 9.01 2.01 9 2.02 10.02 1.01 10.02"/><rect class="cls-2" x="1.01" y="9.01" width="1" height="1"/><polygon class="cls-2" points="1.01 9.02 1 8.01 2.01 8 2.02 9.02 1.01 9.02"/><rect class="cls-2" x="1.01" y="8.01" width="1" height="1"/><polygon class="cls-2" points="1.01 8.02 1 7.01 2.01 7 2.02 8.02 1.01 8.02"/><rect class="cls-2" x="1.01" y="7.01" width="1" height="1"/><polygon class="cls-4" points="1.01 2.02 1 1.01 2.01 1 2.02 2.02 1.01 2.02"/><rect class="cls-4" x="1.01" y="1.01" width="1" height="1"/><polygon class="cls-6" points="1.01 1.02 1 0.01 2.01 0 2.02 1.02 1.01 1.02"/><rect class="cls-6" x="1.01" y="0.01" width="1" height="1"/><polygon class="cls-1" points="0.01 14.02 0 13.01 1.01 13 1.02 14.02 0.01 14.02"/><rect class="cls-1" x="0.01" y="13.01" width="1" height="1"/><polygon class="cls-1" points="0.01 13.02 0 12.01 1.01 12 1.02 13.02 0.01 13.02"/><rect class="cls-1" x="0.01" y="12.01" width="1" height="1"/><polygon class="cls-1" points="0.01 12.02 0 11.01 1.01 11 1.02 12.02 0.01 12.02"/><rect class="cls-1" x="0.01" y="11.01" width="1" height="1"/><polygon class="cls-1" points="0.01 11.02 0 10.01 1.01 10 1.02 11.02 0.01 11.02"/><rect class="cls-1" x="0.01" y="10.01" width="1" height="1"/><polygon class="cls-6" points="0.01 2.02 0 1.01 1.01 1 1.02 2.02 0.01 2.02"/><rect class="cls-6" x="0.01" y="1.01" width="1" height="1"/><polygon class="cls-6" points="0.01 1.02 0 0.01 1.01 0 1.02 1.02 0.01 1.02"/><rect class="cls-6" x="0.01" y="0.01" width="1" height="1"/></g></g></g></svg>