<svg xmlns="http://www.w3.org/2000/svg" viewBox="0 0 10.02 10.02"><defs><style>.cls-1{fill:#459343;}.cls-2{fill:#83c76c;}.cls-3{fill:#5fbc4c;}.cls-4{fill:#b5dba7;}.cls-5{fill:#040707;}</style></defs><title>creaper</title><g id="Layer_2" data-name="Layer 2"><g id="Layer_1-2" data-name="Layer 1"><g id="_Group_" data-name="&lt;Group&gt;"><polygon class="cls-1" points="9.01 10.02 9 9.01 10.01 9 10.02 10.02 9.01 10.02"/><rect class="cls-1" x="9.01" y="9.01" width="1" height="1"/><polygon class="cls-1" points="9.01 9.02 9 8.01 10.01 8 10.02 9.02 9.01 9.02"/><rect class="cls-1" x="9.01" y="8.01" width="1" height="1"/><polygon class="cls-1" points="9.01 8.02 9 7.01 10.01 7 10.02 8.02 9.01 8.02"/><rect class="cls-1" x="9.01" y="7.01" width="1" height="1"/><polygon class="cls-1" points="9.01 7.02 9 6.01 10.01 6 10.02 7.02 9.01 7.02"/><rect class="cls-1" x="9.01" y="6.01" width="1" height="1"/><polygon class="cls-1" points="9.01 6.02 9 5.01 10.01 5 10.02 6.02 9.01 6.02"/><rect class="cls-1" x="9.01" y="5.01" width="1" height="1"/><polygon class="cls-1" points="9.01 5.02 9 4.01 10.01 4 10.02 5.02 9.01 5.02"/><rect class="cls-1" x="9.01" y="4.01" width="1" height="1"/><polygon class="cls-1" points="9.01 4.02 9 3.01 10.01 3 10.02 4.02 9.01 4.02"/><rect class="cls-1" x="9.01" y="3.01" width="1" height="1"/><polygon class="cls-2" points="9.01 3.02 9 2.01 10.01 2 10.02 3.02 9.01 3.02"/><rect class="cls-2" x="9.01" y="2.01" width="1" height="1"/><polygon class="cls-3" points="9.01 2.02 9 1.01 10.01 1 10.02 2.02 9.01 2.02"/><rect class="cls-3" x="9.01" y="1.01" width="1" height="1"/><polygon class="cls-3" points="9.01 1.02 9 0.01 10.01 0 10.02 1.02 9.01 1.02"/><rect class="cls-3" x="9.01" y="0.01" width="1" height="1"/><polygon class="cls-1" points="8.01 10.02 8 9.01 9.01 9 9.02 10.02 8.01 10.02"/><rect class="cls-1" x="8.01" y="9.01" width="1" height="1"/><polygon class="cls-4" points="8.01 9.02 8 8.01 9.01 8 9.02 9.02 8.01 9.02"/><rect class="cls-4" x="8.01" y="8.01" width="1" height="1"/><polygon class="cls-3" points="8.01 8.02 8 7.01 9.01 7 9.02 8.02 8.01 8.02"/><rect class="cls-3" x="8.01" y="7.01" width="1" height="1"/><polygon class="cls-1" points="8.01 7.02 8 6.01 9.01 6 9.02 7.02 8.01 7.02"/><rect class="cls-1" x="8.01" y="6.01" width="1" height="1"/><polygon class="cls-3" points="8.01 6.02 8 5.01 9.01 5 9.02 6.02 8.01 6.02"/><rect class="cls-3" x="8.01" y="5.01" width="1" height="1"/><polygon class="cls-1" points="8.01 5.02 8 4.01 9.01 4 9.02 5.02 8.01 5.02"/><rect class="cls-1" x="8.01" y="4.01" width="1" height="1"/><polygon class="cls-3" points="8.01 4.02 8 3.01 9.01 3 9.02 4.02 8.01 4.02"/><rect class="cls-3" x="8.01" y="3.01" width="1" height="1"/><polygon class="cls-3" points="8.01 3.02 8 2.01 9.01 2 9.02 3.02 8.01 3.02"/><rect class="cls-3" x="8.01" y="2.01" width="1" height="1"/><polygon class="cls-3" points="8.01 2.02 8 1.01 9.01 1 9.02 2.02 8.01 2.02"/><rect class="cls-3" x="8.01" y="1.01" width="1" height="1"/><polygon class="cls-2" points="8.01 1.02 8 0.01 9.01 0 9.02 1.02 8.01 1.02"/><rect class="cls-2" x="8.01" y="0.01" width="1" height="1"/><polygon class="cls-3" points="7.01 10.02 7 9.01 8.01 9 8.02 10.02 7.01 10.02"/><rect class="cls-3" x="7.01" y="9.01" width="1" height="1"/><polygon class="cls-3" points="7.01 9.02 7 8.01 8.01 8 8.02 9.02 7.01 9.02"/><rect class="cls-3" x="7.01" y="8.01" width="1" height="1"/><polygon class="cls-3" points="7.01 8.02 7 7.01 8.01 7 8.02 8.02 7.01 8.02"/><rect class="cls-3" x="7.01" y="7.01" width="1" height="1"/><polygon class="cls-3" points="7.01 7.02 7 6.01 8.01 6 8.02 7.02 7.01 7.02"/><rect class="cls-3" x="7.01" y="6.01" width="1" height="1"/><polygon class="cls-3" points="7.01 6.02 7 5.01 8.01 5 8.02 6.02 7.01 6.02"/><rect class="cls-3" x="7.01" y="5.01" width="1" height="1"/><polygon class="cls-3" points="7.01 5.02 7 4.01 8.01 4 8.02 5.02 7.01 5.02"/><rect class="cls-3" x="7.01" y="4.01" width="1" height="1"/><polygon class="cls-5" points="7.01 4.02 7 3.01 8.01 3 8.02 4.02 7.01 4.02"/><rect class="cls-5" x="7.01" y="3.01" width="1" height="1"/><polygon class="cls-5" points="7.01 3.02 7 2.01 8.01 2 8.02 3.02 7.01 3.02"/><rect class="cls-5" x="7.01" y="2.01" width="1" height="1"/><polygon class="cls-3" points="7.01 2.02 7 1.01 8.01 1 8.02 2.02 7.01 2.02"/><rect class="cls-3" x="7.01" y="1.01" width="1" height="1"/><polygon class="cls-3" points="7.01 1.02 7 0.01 8.01 0 8.02 1.02 7.01 1.02"/><rect class="cls-3" x="7.01" y="0.01" width="1" height="1"/><polygon class="cls-4" points="6.01 10.02 6 9.01 7.01 9 7.02 10.02 6.01 10.02"/><rect class="cls-4" x="6.01" y="9.01" width="1" height="1"/><polygon class="cls-1" points="6.01 9.02 6 8.01 7.01 8 7.02 9.02 6.01 9.02"/><rect class="cls-1" x="6.01" y="8.01" width="1" height="1"/><polygon class="cls-5" points="6.01 8.02 6 7.01 7.01 7 7.02 8.02 6.01 8.02"/><rect class="cls-5" x="6.01" y="7.01" width="1" height="1"/><polygon class="cls-5" points="6.01 7.02 6 6.01 7.01 6 7.02 7.02 6.01 7.02"/><rect class="cls-5" x="6.01" y="6.01" width="1" height="1"/><polygon class="cls-5" points="6.01 6.02 6 5.01 7.01 5 7.02 6.02 6.01 6.02"/><rect class="cls-5" x="6.01" y="5.01" width="1" height="1"/><polygon class="cls-3" points="6.01 5.02 6 4.01 7.01 4 7.02 5.02 6.01 5.02"/><rect class="cls-3" x="6.01" y="4.01" width="1" height="1"/><polygon class="cls-5" points="6.01 4.02 6 3.01 7.01 3 7.02 4.02 6.01 4.02"/><rect class="cls-5" x="6.01" y="3.01" width="1" height="1"/><polygon class="cls-5" points="6.01 3.02 6 2.01 7.01 2 7.02 3.02 6.01 3.02"/><rect class="cls-5" x="6.01" y="2.01" width="1" height="1"/><polygon class="cls-4" points="6.01 2.02 6 1.01 7.01 1 7.02 2.02 6.01 2.02"/><rect class="cls-4" x="6.01" y="1.01" width="1" height="1"/><polygon class="cls-3" points="6.01 1.02 6 0.01 7.01 0 7.02 1.02 6.01 1.02"/><rect class="cls-3" x="6.01" y="0.01" width="1" height="1"/><polygon class="cls-3" points="5.01 10.02 5 9.01 6.01 9 6.02 10.02 5.01 10.02"/><rect class="cls-3" x="5.01" y="9.01" width="1" height="1"/><polygon class="cls-3" points="5.01 9.02 5 8.01 6.01 8 6.02 9.02 5.01 9.02"/><rect class="cls-3" x="5.01" y="8.01" width="1" height="1"/><polygon class="cls-3" points="5.01 8.02 5 7.01 6.01 7 6.02 8.02 5.01 8.02"/><rect class="cls-3" x="5.01" y="7.01" width="1" height="1"/><polygon class="cls-5" points="5.01 7.02 5 6.01 6.01 6 6.02 7.02 5.01 7.02"/><rect class="cls-5" x="5.01" y="6.01" width="1" height="1"/><polygon class="cls-5" points="5.01 6.02 5 5.01 6.01 5 6.02 6.02 5.01 6.02"/><rect class="cls-5" x="5.01" y="5.01" width="1" height="1"/><polygon class="cls-5" points="5.01 5.02 5 4.01 6.01 4 6.02 5.02 5.01 5.02"/><rect class="cls-5" x="5.01" y="4.01" width="1" height="1"/><polygon class="cls-3" points="5.01 4.02 5 3.01 6.01 3 6.02 4.02 5.01 4.02"/><rect class="cls-3" x="5.01" y="3.01" width="1" height="1"/><polygon class="cls-1" points="5.01 3.02 5 2.01 6.01 2 6.02 3.02 5.01 3.02"/><rect class="cls-1" x="5.01" y="2.01" width="1" height="1"/><polygon class="cls-3" points="5.01 2.02 5 1.01 6.01 1 6.02 2.02 5.01 2.02"/><rect class="cls-3" x="5.01" y="1.01" width="1" height="1"/><polygon class="cls-4" points="5.01 1.02 5 0.01 6.01 0 6.02 1.02 5.01 1.02"/><rect class="cls-4" x="5.01" y="0.01" width="1" height="1"/><polygon class="cls-3" points="4.01 10.02 4 9.01 5.01 9 5.02 10.02 4.01 10.02"/><rect class="cls-3" x="4.01" y="9.01" width="1" height="1"/><polygon class="cls-3" points="4.01 9.02 4 8.01 5.01 8 5.02 9.02 4.01 9.02"/><rect class="cls-3" x="4.01" y="8.01" width="1" height="1"/><polygon class="cls-2" points="4.01 8.02 4 7.01 5.01 7 5.02 8.02 4.01 8.02"/><rect class="cls-2" x="4.01" y="7.01" width="1" height="1"/><polygon class="cls-5" points="4.01 7.02 4 6.01 5.01 6 5.02 7.02 4.01 7.02"/><rect class="cls-5" x="4.01" y="6.01" width="1" height="1"/><polygon class="cls-5" points="4.01 6.02 4 5.01 5.01 5 5.02 6.02 4.01 6.02"/><rect class="cls-5" x="4.01" y="5.01" width="1" height="1"/><polygon class="cls-5" points="4.01 5.02 4 4.01 5.01 4 5.02 5.02 4.01 5.02"/><rect class="cls-5" x="4.01" y="4.01" width="1" height="1"/><polygon class="cls-4" points="4.01 4.02 4 3.01 5.01 3 5.02 4.02 4.01 4.02"/><rect class="cls-4" x="4.01" y="3.01" width="1" height="1"/><polygon class="cls-3" points="4.01 3.02 4 2.01 5.01 2 5.02 3.02 4.01 3.02"/><rect class="cls-3" x="4.01" y="2.01" width="1" height="1"/><polygon class="cls-3" points="4.01 2.02 4 1.01 5.01 1 5.02 2.02 4.01 2.02"/><rect class="cls-3" x="4.01" y="1.01" width="1" height="1"/><polygon class="cls-3" points="4.01 1.02 4 0.01 5.01 0 5.02 1.02 4.01 1.02"/><rect class="cls-3" x="4.01" y="0.01" width="1" height="1"/><polygon class="cls-3" points="3.01 10.02 3 9.01 4.01 9 4.02 10.02 3.01 10.02"/><rect class="cls-3" x="3.01" y="9.01" width="1" height="1"/><polygon class="cls-3" points="3.01 9.02 3 8.01 4.01 8 4.02 9.02 3.01 9.02"/><rect class="cls-3" x="3.01" y="8.01" width="1" height="1"/><polygon class="cls-5" points="3.01 8.02 3 7.01 4.01 7 4.02 8.02 3.01 8.02"/><rect class="cls-5" x="3.01" y="7.01" width="1" height="1"/><polygon class="cls-5" points="3.01 7.02 3 6.01 4.01 6 4.02 7.02 3.01 7.02"/><rect class="cls-5" x="3.01" y="6.01" width="1" height="1"/><polygon class="cls-5" points="3.01 6.02 3 5.01 4.01 5 4.02 6.02 3.01 6.02"/><rect class="cls-5" x="3.01" y="5.01" width="1" height="1"/><polygon class="cls-3" points="3.01 5.02 3 4.01 4.01 4 4.02 5.02 3.01 5.02"/><rect class="cls-3" x="3.01" y="4.01" width="1" height="1"/><polygon class="cls-5" points="3.01 4.02 3 3.01 4.01 3 4.02 4.02 3.01 4.02"/><rect class="cls-5" x="3.01" y="3.01" width="1" height="1"/><polygon class="cls-5" points="3.01 3.02 3 2.01 4.01 2 4.02 3.02 3.01 3.02"/><rect class="cls-5" x="3.01" y="2.01" width="1" height="1"/><polygon class="cls-3" points="3.01 2.02 3 1.01 4.01 1 4.02 2.02 3.01 2.02"/><rect class="cls-3" x="3.01" y="1.01" width="1" height="1"/><polygon class="cls-3" points="3.01 1.02 3 0.01 4.01 0 4.02 1.02 3.01 1.02"/><rect class="cls-3" x="3.01" y="0.01" width="1" height="1"/><polygon class="cls-1" points="2.01 10.02 2 9.01 3.01 9 3.02 10.02 2.01 10.02"/><rect class="cls-1" x="2.01" y="9.01" width="1" height="1"/><polygon class="cls-2" points="2.01 9.02 2 8.01 3.01 8 3.02 9.02 2.01 9.02"/><rect class="cls-2" x="2.01" y="8.01" width="1" height="1"/><polygon class="cls-3" points="2.01 8.02 2 7.01 3.01 7 3.02 8.02 2.01 8.02"/><rect class="cls-3" x="2.01" y="7.01" width="1" height="1"/><polygon class="cls-2" points="2.01 7.02 2 6.01 3.01 6 3.02 7.02 2.01 7.02"/><rect class="cls-2" x="2.01" y="6.01" width="1" height="1"/><polygon class="cls-3" points="2.01 6.02 2 5.01 3.01 5 3.02 6.02 2.01 6.02"/><rect class="cls-3" x="2.01" y="5.01" width="1" height="1"/><polygon class="cls-2" points="2.01 5.02 2 4.01 3.01 4 3.02 5.02 2.01 5.02"/><rect class="cls-2" x="2.01" y="4.01" width="1" height="1"/><polygon class="cls-5" points="2.01 4.02 2 3.01 3.01 3 3.02 4.02 2.01 4.02"/><rect class="cls-5" x="2.01" y="3.01" width="1" height="1"/><polygon class="cls-5" points="2.01 3.02 2 2.01 3.01 2 3.02 3.02 2.01 3.02"/><rect class="cls-5" x="2.01" y="2.01" width="1" height="1"/><polygon class="cls-3" points="2.01 2.02 2 1.01 3.01 1 3.02 2.02 2.01 2.02"/><rect class="cls-3" x="2.01" y="1.01" width="1" height="1"/><polygon class="cls-2" points="2.01 1.02 2 0.01 3.01 0 3.02 1.02 2.01 1.02"/><rect class="cls-2" x="2.01" y="0.01" width="1" height="1"/><polygon class="cls-3" points="1.01 10.02 1 9.01 2.01 9 2.02 10.02 1.01 10.02"/><rect class="cls-3" x="1.01" y="9.01" width="1" height="1"/><polygon class="cls-3" points="1.01 9.02 1 8.01 2.01 8 2.02 9.02 1.01 9.02"/><rect class="cls-3" x="1.01" y="8.01" width="1" height="1"/><polygon class="cls-3" points="1.01 8.02 1 7.01 2.01 7 2.02 8.02 1.01 8.02"/><rect class="cls-3" x="1.01" y="7.01" width="1" height="1"/><polygon class="cls-3" points="1.01 7.02 1 6.01 2.01 6 2.02 7.02 1.01 7.02"/><rect class="cls-3" x="1.01" y="6.01" width="1" height="1"/><polygon class="cls-3" points="1.01 6.02 1 5.01 2.01 5 2.02 6.02 1.01 6.02"/><rect class="cls-3" x="1.01" y="5.01" width="1" height="1"/><polygon class="cls-3" points="1.01 5.02 1 4.01 2.01 4 2.02 5.02 1.01 5.02"/><rect class="cls-3" x="1.01" y="4.01" width="1" height="1"/><polygon class="cls-3" points="1.01 4.02 1 3.01 2.01 3 2.02 4.02 1.01 4.02"/><rect class="cls-3" x="1.01" y="3.01" width="1" height="1"/><polygon class="cls-3" points="1.01 3.02 1 2.01 2.01 2 2.02 3.02 1.01 3.02"/><rect class="cls-3" x="1.01" y="2.01" width="1" height="1"/><polygon class="cls-1" points="1.01 2.02 1 1.01 2.01 1 2.02 2.02 1.01 2.02"/><rect class="cls-1" x="1.01" y="1.01" width="1" height="1"/><polygon class="cls-4" points="1.01 1.02 1 0.01 2.01 0 2.02 1.02 1.01 1.02"/><rect class="cls-4" x="1.01" y="0.01" width="1" height="1"/><polygon class="cls-3" points="0.01 10.02 0 9.01 1.01 9 1.02 10.02 0.01 10.02"/><rect class="cls-3" x="0.01" y="9.01" width="1" height="1"/><polygon class="cls-1" points="0.01 9.02 0 8.01 1.01 8 1.02 9.02 0.01 9.02"/><rect class="cls-1" x="0.01" y="8.01" width="1" height="1"/><polygon class="cls-3" points="0.01 8.02 0 7.01 1.01 7 1.02 8.02 0.01 8.02"/><rect class="cls-3" x="0.01" y="7.01" width="1" height="1"/><polygon class="cls-3" points="0.01 7.02 0 6.01 1.01 6 1.02 7.02 0.01 7.02"/><rect class="cls-3" x="0.01" y="6.01" width="1" height="1"/><polygon class="cls-3" points="0.01 6.02 0 5.01 1.01 5 1.02 6.02 0.01 6.02"/><rect class="cls-3" x="0.01" y="5.01" width="1" height="1"/><polygon class="cls-2" points="0.01 5.02 0 4.01 1.01 4 1.02 5.02 0.01 5.02"/><rect class="cls-2" x="0.01" y="4.01" width="1" height="1"/><polygon class="cls-3" points="0.01 4.02 0 3.01 1.01 3 1.02 4.02 0.01 4.02"/><rect class="cls-3" x="0.01" y="3.01" width="1" height="1"/><polygon class="cls-3" points="0.01 3.02 0 2.01 1.01 2 1.02 3.02 0.01 3.02"/><rect class="cls-3" x="0.01" y="2.01" width="1" height="1"/><polygon class="cls-3" points="0.01 2.02 0 1.01 1.01 1 1.02 2.02 0.01 2.02"/><rect class="cls-3" x="0.01" y="1.01" width="1" height="1"/><polygon class="cls-1" points="0.01 1.02 0 0.01 1.01 0 1.02 1.02 0.01 1.02"/><rect class="cls-1" x="0.01" y="0.01" width="1" height="1"/></g></g></g></svg>