<svg xmlns="http://www.w3.org/2000/svg" viewBox="0 0 13.02 13.02"><defs><style>.cls-1{fill:#37474f;}.cls-2{fill:#b76648;}.cls-3{fill:#00bcd4;}.cls-4{fill:#4dd0e1;}</style></defs><title>diamond-pickaxe</title><g id="Layer_2" data-name="Layer 2"><g id="Layer_1-2" data-name="Layer 1"><g id="_Group_" data-name="&lt;Group&gt;"><polygon class="cls-1" points="0.01 12.02 0 11.01 1.01 11 1.02 12.02 0.01 12.02"/><rect class="cls-1" x="0.01" y="11.01" width="1" height="1"/><polygon class="cls-2" points="1.01 12.02 1 11.01 2.01 11 2.02 12.02 1.01 12.02"/><rect class="cls-2" x="1.01" y="11.01" width="1" height="1"/><polygon class="cls-1" points="2.01 12.02 2 11.01 3.01 11 3.02 12.02 2.01 12.02"/><rect class="cls-1" x="2.01" y="11.01" width="1" height="1"/><polygon class="cls-1" points="4.01 8.02 4 7.01 5.01 7 5.02 8.02 4.01 8.02"/><rect class="cls-1" x="4.01" y="7.01" width="1" height="1"/><polygon class="cls-2" points="5.01 8.02 5 7.01 6.01 7 6.02 8.02 5.01 8.02"/><rect class="cls-2" x="5.01" y="7.01" width="1" height="1"/><polygon class="cls-1" points="6.01 8.02 6 7.01 7.01 7 7.02 8.02 6.01 8.02"/><rect class="cls-1" x="6.01" y="7.01" width="1" height="1"/><polygon class="cls-3" points="12.01 8.02 12 7.01 13.01 7 13.02 8.02 12.01 8.02"/><rect class="cls-3" x="12.01" y="7.01" width="1" height="1"/><polygon class="cls-3" points="10.01 8.02 10 7.01 11.01 7 11.02 8.02 10.01 8.02"/><rect class="cls-3" x="10.01" y="7.01" width="1" height="1"/><polygon class="cls-4" points="11.01 8.02 11 7.01 12.01 7 12.02 8.02 11.01 8.02"/><rect class="cls-4" x="11.01" y="7.01" width="1" height="1"/><polygon class="cls-3" points="4.01 3.02 4 2.01 5.01 2 5.02 3.02 4.01 3.02"/><rect class="cls-3" x="4.01" y="2.01" width="1" height="1"/><polygon class="cls-3" points="5.01 3.02 5 2.01 6.01 2 6.02 3.02 5.01 3.02"/><rect class="cls-3" x="5.01" y="2.01" width="1" height="1"/><polygon class="cls-3" points="6.01 3.02 6 2.01 7.01 2 7.02 3.02 6.01 3.02"/><rect class="cls-3" x="6.01" y="2.01" width="1" height="1"/><polygon class="cls-3" points="7.01 3.02 7 2.01 8.01 2 8.02 3.02 7.01 3.02"/><rect class="cls-3" x="7.01" y="2.01" width="1" height="1"/><polygon class="cls-4" points="8.01 3.02 8 2.01 9.01 2 9.02 3.02 8.01 3.02"/><rect class="cls-4" x="8.01" y="2.01" width="1" height="1"/><polygon class="cls-4" points="9.01 3.02 9 2.01 10.01 2 10.02 3.02 9.01 3.02"/><rect class="cls-4" x="9.01" y="2.01" width="1" height="1"/><polygon class="cls-2" points="10.01 3.02 10 2.01 11.01 2 11.02 3.02 10.01 3.02"/><rect class="cls-2" x="10.01" y="2.01" width="1" height="1"/><polygon class="cls-1" points="11.01 3.02 11 2.01 12.01 2 12.02 3.02 11.01 3.02"/><rect class="cls-1" x="11.01" y="2.01" width="1" height="1"/><polygon class="cls-1" points="1.01 11.02 1 10.01 2.01 10 2.02 11.02 1.01 11.02"/><rect class="cls-1" x="1.01" y="10.01" width="1" height="1"/><polygon class="cls-2" points="2.01 11.02 2 10.01 3.01 10 3.02 11.02 2.01 11.02"/><rect class="cls-2" x="2.01" y="10.01" width="1" height="1"/><polygon class="cls-1" points="3.01 11.02 3 10.01 4.01 10 4.02 11.02 3.01 11.02"/><rect class="cls-1" x="3.01" y="10.01" width="1" height="1"/><polygon class="cls-1" points="5.01 7.02 5 6.01 6.01 6 6.02 7.02 5.01 7.02"/><rect class="cls-1" x="5.01" y="6.01" width="1" height="1"/><polygon class="cls-2" points="6.01 7.02 6 6.01 7.01 6 7.02 7.02 6.01 7.02"/><rect class="cls-2" x="6.01" y="6.01" width="1" height="1"/><polygon class="cls-1" points="7.01 7.02 7 6.01 8.01 6 8.02 7.02 7.01 7.02"/><rect class="cls-1" x="7.01" y="6.01" width="1" height="1"/><polygon class="cls-3" points="12.01 7.02 12 6.01 13.01 6 13.02 7.02 12.01 7.02"/><rect class="cls-3" x="12.01" y="6.01" width="1" height="1"/><polygon class="cls-3" points="10.01 7.02 10 6.01 11.01 6 11.02 7.02 10.01 7.02"/><rect class="cls-3" x="10.01" y="6.01" width="1" height="1"/><polygon class="cls-4" points="11.01 7.02 11 6.01 12.01 6 12.02 7.02 11.01 7.02"/><rect class="cls-4" x="11.01" y="6.01" width="1" height="1"/><polygon class="cls-3" points="12.01 4.02 12 3.01 13.01 3 13.02 4.02 12.01 4.02"/><rect class="cls-3" x="12.01" y="3.01" width="1" height="1"/><polygon class="cls-1" points="8.01 4.02 8 3.01 9.01 3 9.02 4.02 8.01 4.02"/><rect class="cls-1" x="8.01" y="3.01" width="1" height="1"/><polygon class="cls-4" points="9.01 4.02 9 3.01 10.01 3 10.02 4.02 9.01 4.02"/><rect class="cls-4" x="9.01" y="3.01" width="1" height="1"/><polygon class="cls-4" points="10.01 4.02 10 3.01 11.01 3 11.02 4.02 10.01 4.02"/><rect class="cls-4" x="10.01" y="3.01" width="1" height="1"/><polygon class="cls-3" points="11.01 4.02 11 3.01 12.01 3 12.02 4.02 11.01 4.02"/><rect class="cls-3" x="11.01" y="3.01" width="1" height="1"/><polygon class="cls-1" points="4.01 10.02 4 9.01 5.01 9 5.02 10.02 4.01 10.02"/><rect class="cls-1" x="4.01" y="9.01" width="1" height="1"/><polygon class="cls-1" points="2.01 10.02 2 9.01 3.01 9 3.02 10.02 2.01 10.02"/><rect class="cls-1" x="2.01" y="9.01" width="1" height="1"/><polygon class="cls-2" points="3.01 10.02 3 9.01 4.01 9 4.02 10.02 3.01 10.02"/><rect class="cls-2" x="3.01" y="9.01" width="1" height="1"/><polygon class="cls-3" points="11.01 10.02 11 9.01 12.01 9 12.02 10.02 11.01 10.02"/><rect class="cls-3" x="11.01" y="9.01" width="1" height="1"/><polygon class="cls-1" points="7.01 5.02 7 4.01 8.01 4 8.02 5.02 7.01 5.02"/><rect class="cls-1" x="7.01" y="4.01" width="1" height="1"/><polygon class="cls-3" points="12.01 5.02 12 4.01 13.01 4 13.02 5.02 12.01 5.02"/><rect class="cls-3" x="12.01" y="4.01" width="1" height="1"/><polygon class="cls-2" points="8.01 5.02 8 4.01 9.01 4 9.02 5.02 8.01 5.02"/><rect class="cls-2" x="8.01" y="4.01" width="1" height="1"/><polygon class="cls-1" points="9.01 5.02 9 4.01 10.01 4 10.02 5.02 9.01 5.02"/><rect class="cls-1" x="9.01" y="4.01" width="1" height="1"/><polygon class="cls-4" points="10.01 5.02 10 4.01 11.01 4 11.02 5.02 10.01 5.02"/><rect class="cls-4" x="10.01" y="4.01" width="1" height="1"/><polygon class="cls-4" points="11.01 5.02 11 4.01 12.01 4 12.02 5.02 11.01 5.02"/><rect class="cls-4" x="11.01" y="4.01" width="1" height="1"/><polygon class="cls-3" points="4.01 1.02 4 0.01 5.01 0 5.02 1.02 4.01 1.02"/><rect class="cls-3" x="4.01" y="0.01" width="1" height="1"/><polygon class="cls-3" points="5.01 1.02 5 0.01 6.01 0 6.02 1.02 5.01 1.02"/><rect class="cls-3" x="5.01" y="0.01" width="1" height="1"/><polygon class="cls-3" points="6.01 1.02 6 0.01 7.01 0 7.02 1.02 6.01 1.02"/><rect class="cls-3" x="6.01" y="0.01" width="1" height="1"/><polygon class="cls-3" points="7.01 1.02 7 0.01 8.01 0 8.02 1.02 7.01 1.02"/><rect class="cls-3" x="7.01" y="0.01" width="1" height="1"/><polygon class="cls-3" points="8.01 1.02 8 0.01 9.01 0 9.02 1.02 8.01 1.02"/><rect class="cls-3" x="8.01" y="0.01" width="1" height="1"/><polygon class="cls-1" points="0.01 13.02 0 12.01 1.01 12 1.02 13.02 0.01 13.02"/><rect class="cls-1" x="0.01" y="12.01" width="1" height="1"/><polygon class="cls-1" points="1.01 13.02 1 12.01 2.01 12 2.02 13.02 1.01 13.02"/><rect class="cls-1" x="1.01" y="12.01" width="1" height="1"/><polygon class="cls-2" points="4.01 9.02 4 8.01 5.01 8 5.02 9.02 4.01 9.02"/><rect class="cls-2" x="4.01" y="8.01" width="1" height="1"/><polygon class="cls-1" points="5.01 9.02 5 8.01 6.01 8 6.02 9.02 5.01 9.02"/><rect class="cls-1" x="5.01" y="8.01" width="1" height="1"/><polygon class="cls-1" points="3.01 9.02 3 8.01 4.01 8 4.02 9.02 3.01 9.02"/><rect class="cls-1" x="3.01" y="8.01" width="1" height="1"/><polygon class="cls-3" points="12.01 9.02 12 8.01 13.01 8 13.02 9.02 12.01 9.02"/><rect class="cls-3" x="12.01" y="8.01" width="1" height="1"/><polygon class="cls-3" points="10.01 9.02 10 8.01 11.01 8 11.02 9.02 10.01 9.02"/><rect class="cls-3" x="10.01" y="8.01" width="1" height="1"/><polygon class="cls-4" points="11.01 9.02 11 8.01 12.01 8 12.02 9.02 11.01 9.02"/><rect class="cls-4" x="11.01" y="8.01" width="1" height="1"/><polygon class="cls-1" points="6.01 6.02 6 5.01 7.01 5 7.02 6.02 6.01 6.02"/><rect class="cls-1" x="6.01" y="5.01" width="1" height="1"/><polygon class="cls-2" points="7.01 6.02 7 5.01 8.01 5 8.02 6.02 7.01 6.02"/><rect class="cls-2" x="7.01" y="5.01" width="1" height="1"/><polygon class="cls-3" points="12.01 6.02 12 5.01 13.01 5 13.02 6.02 12.01 6.02"/><rect class="cls-3" x="12.01" y="5.01" width="1" height="1"/><polygon class="cls-1" points="8.01 6.02 8 5.01 9.01 5 9.02 6.02 8.01 6.02"/><rect class="cls-1" x="8.01" y="5.01" width="1" height="1"/><polygon class="cls-3" points="10.01 6.02 10 5.01 11.01 5 11.02 6.02 10.01 6.02"/><rect class="cls-3" x="10.01" y="5.01" width="1" height="1"/><polygon class="cls-4" points="11.01 6.02 11 5.01 12.01 5 12.02 6.02 11.01 6.02"/><rect class="cls-4" x="11.01" y="5.01" width="1" height="1"/><polygon class="cls-4" points="4.01 2.02 4 1.01 5.01 1 5.02 2.02 4.01 2.02"/><rect class="cls-4" x="4.01" y="1.01" width="1" height="1"/><polygon class="cls-4" points="5.01 2.02 5 1.01 6.01 1 6.02 2.02 5.01 2.02"/><rect class="cls-4" x="5.01" y="1.01" width="1" height="1"/><polygon class="cls-4" points="6.01 2.02 6 1.01 7.01 1 7.02 2.02 6.01 2.02"/><rect class="cls-4" x="6.01" y="1.01" width="1" height="1"/><polygon class="cls-4" points="7.01 2.02 7 1.01 8.01 1 8.02 2.02 7.01 2.02"/><rect class="cls-4" x="7.01" y="1.01" width="1" height="1"/><polygon class="cls-3" points="3.01 2.02 3 1.01 4.01 1 4.02 2.02 3.01 2.02"/><rect class="cls-3" x="3.01" y="1.01" width="1" height="1"/><polygon class="cls-4" points="8.01 2.02 8 1.01 9.01 1 9.02 2.02 8.01 2.02"/><rect class="cls-4" x="8.01" y="1.01" width="1" height="1"/><polygon class="cls-3" points="9.01 2.02 9 1.01 10.01 1 10.02 2.02 9.01 2.02"/><rect class="cls-3" x="9.01" y="1.01" width="1" height="1"/><polygon class="cls-1" points="10.01 2.02 10 1.01 11.01 1 11.02 2.02 10.01 2.02"/><rect class="cls-1" x="10.01" y="1.01" width="1" height="1"/><polygon class="cls-2" points="11.01 2.02 11 1.01 12.01 1 12.02 2.02 11.01 2.02"/><rect class="cls-2" x="11.01" y="1.01" width="1" height="1"/></g></g></g></svg>