<svg xmlns="http://www.w3.org/2000/svg" viewBox="0 0 13.02 14.02"><defs><style>.cls-1{fill:#1c2428;}.cls-2{fill:#37474f;}.cls-3{fill:#198f17;}.cls-4{fill:#b76648;}.cls-5{fill:#b25400;}.cls-6{fill:#036703;}.cls-7{fill:#ff911b;}.cls-8{fill:#a73400;}.cls-9{fill:#fff;}.cls-10{fill:#353535;}.cls-11{fill:#969696;}</style></defs><title>fishing-rod</title><g id="Layer_2" data-name="Layer 2"><g id="Layer_1-2" data-name="Layer 1"><g id="_Group_" data-name="&lt;Group&gt;"><polygon class="cls-1" points="12.01 8.02 12 7.01 13.01 7 13.02 8.02 12.01 8.02"/><rect class="cls-1" x="12.01" y="7.01" width="1" height="1"/><polygon class="cls-1" points="12.01 7.02 12 6.01 13.01 6 13.02 7.02 12.01 7.02"/><rect class="cls-1" x="12.01" y="6.01" width="1" height="1"/><polygon class="cls-1" points="12.01 6.02 12 5.01 13.01 5 13.02 6.02 12.01 6.02"/><rect class="cls-1" x="12.01" y="5.01" width="1" height="1"/><polygon class="cls-1" points="12.01 5.02 12 4.01 13.01 4 13.02 5.02 12.01 5.02"/><rect class="cls-1" x="12.01" y="4.01" width="1" height="1"/><polygon class="cls-1" points="12.01 4.02 12 3.01 13.01 3 13.02 4.02 12.01 4.02"/><rect class="cls-1" x="12.01" y="3.01" width="1" height="1"/><polygon class="cls-2" points="12.01 3.02 12 2.01 13.01 2 13.02 3.02 12.01 3.02"/><rect class="cls-2" x="12.01" y="2.01" width="1" height="1"/><polygon class="cls-2" points="12.01 2.02 12 1.01 13.01 1 13.02 2.02 12.01 2.02"/><rect class="cls-2" x="12.01" y="1.01" width="1" height="1"/><polygon class="cls-1" points="12.01 1.02 12 0.01 13.01 0 13.02 1.02 12.01 1.02"/><rect class="cls-1" x="12.01" y="0.01" width="1" height="1"/><polygon class="cls-3" points="11.01 10.02 11 9.01 12.01 9 12.02 10.02 11.01 10.02"/><rect class="cls-3" x="11.01" y="9.01" width="1" height="1"/><polygon class="cls-1" points="11.01 9.02 11 8.01 12.01 8 12.02 9.02 11.01 9.02"/><rect class="cls-1" x="11.01" y="8.01" width="1" height="1"/><polygon class="cls-2" points="11.01 3.02 11 2.01 12.01 2 12.02 3.02 11.01 3.02"/><rect class="cls-2" x="11.01" y="2.01" width="1" height="1"/><polygon class="cls-4" points="11.01 2.02 11 1.01 12.01 1 12.02 2.02 11.01 2.02"/><rect class="cls-4" x="11.01" y="1.01" width="1" height="1"/><polygon class="cls-1" points="11.01 1.02 11 0.01 12.01 0 12.02 1.02 11.01 1.02"/><rect class="cls-1" x="11.01" y="0.01" width="1" height="1"/><polygon class="cls-5" points="10.01 11.02 10 10.01 11.01 10 11.02 11.02 10.01 11.02"/><rect class="cls-5" x="10.01" y="10.01" width="1" height="1"/><polygon class="cls-6" points="10.01 10.02 10 9.01 11.01 9 11.02 10.02 10.01 10.02"/><rect class="cls-6" x="10.01" y="9.01" width="1" height="1"/><polygon class="cls-3" points="10.01 9.02 10 8.01 11.01 8 11.02 9.02 10.01 9.02"/><rect class="cls-3" x="10.01" y="8.01" width="1" height="1"/><polygon class="cls-2" points="10.01 4.02 10 3.01 11.01 3 11.02 4.02 10.01 4.02"/><rect class="cls-2" x="10.01" y="3.01" width="1" height="1"/><polygon class="cls-4" points="10.01 3.02 10 2.01 11.01 2 11.02 3.02 10.01 3.02"/><rect class="cls-4" x="10.01" y="2.01" width="1" height="1"/><polygon class="cls-2" points="10.01 2.02 10 1.01 11.01 1 11.02 2.02 10.01 2.02"/><rect class="cls-2" x="10.01" y="1.01" width="1" height="1"/><polygon class="cls-1" points="10.01 1.02 10 0.01 11.01 0 11.02 1.02 10.01 1.02"/><rect class="cls-1" x="10.01" y="0.01" width="1" height="1"/><polygon class="cls-5" points="9.01 12.02 9 11.01 10.01 11 10.02 12.02 9.01 12.02"/><rect class="cls-5" x="9.01" y="11.01" width="1" height="1"/><polygon class="cls-7" points="9.01 11.02 9 10.01 10.01 10 10.02 11.02 9.01 11.02"/><rect class="cls-7" x="9.01" y="10.01" width="1" height="1"/><polygon class="cls-5" points="9.01 10.02 9 9.01 10.01 9 10.02 10.02 9.01 10.02"/><rect class="cls-5" x="9.01" y="9.01" width="1" height="1"/><polygon class="cls-2" points="9.01 5.02 9 4.01 10.01 4 10.02 5.02 9.01 5.02"/><rect class="cls-2" x="9.01" y="4.01" width="1" height="1"/><polygon class="cls-4" points="9.01 4.02 9 3.01 10.01 3 10.02 4.02 9.01 4.02"/><rect class="cls-4" x="9.01" y="3.01" width="1" height="1"/><polygon class="cls-2" points="9.01 3.02 9 2.01 10.01 2 10.02 3.02 9.01 3.02"/><rect class="cls-2" x="9.01" y="2.01" width="1" height="1"/><polygon class="cls-1" points="9.01 2.02 9 1.01 10.01 1 10.02 2.02 9.01 2.02"/><rect class="cls-1" x="9.01" y="1.01" width="1" height="1"/><polygon class="cls-5" points="8.01 13.02 8 12.01 9.01 12 9.02 13.02 8.01 13.02"/><rect class="cls-5" x="8.01" y="12.01" width="1" height="1"/><polygon class="cls-7" points="8.01 12.02 8 11.01 9.01 11 9.02 12.02 8.01 12.02"/><rect class="cls-7" x="8.01" y="11.01" width="1" height="1"/><polygon class="cls-5" points="8.01 11.02 8 10.01 9.01 10 9.02 11.02 8.01 11.02"/><rect class="cls-5" x="8.01" y="10.01" width="1" height="1"/><polygon class="cls-2" points="8.01 6.02 8 5.01 9.01 5 9.02 6.02 8.01 6.02"/><rect class="cls-2" x="8.01" y="5.01" width="1" height="1"/><polygon class="cls-4" points="8.01 5.02 8 4.01 9.01 4 9.02 5.02 8.01 5.02"/><rect class="cls-4" x="8.01" y="4.01" width="1" height="1"/><polygon class="cls-2" points="8.01 4.02 8 3.01 9.01 3 9.02 4.02 8.01 4.02"/><rect class="cls-2" x="8.01" y="3.01" width="1" height="1"/><polygon class="cls-1" points="8.01 3.02 8 2.01 9.01 2 9.02 3.02 8.01 3.02"/><rect class="cls-1" x="8.01" y="2.01" width="1" height="1"/><polygon class="cls-8" points="7.01 14.02 7 13.01 8.01 13 8.02 14.02 7.01 14.02"/><rect class="cls-8" x="7.01" y="13.01" width="1" height="1"/><polygon class="cls-7" points="7.01 13.02 7 12.01 8.01 12 8.02 13.02 7.01 13.02"/><rect class="cls-7" x="7.01" y="12.01" width="1" height="1"/><polygon class="cls-5" points="7.01 12.02 7 11.01 8.01 11 8.02 12.02 7.01 12.02"/><rect class="cls-5" x="7.01" y="11.01" width="1" height="1"/><polygon class="cls-2" points="7.01 7.02 7 6.01 8.01 6 8.02 7.02 7.01 7.02"/><rect class="cls-2" x="7.01" y="6.01" width="1" height="1"/><polygon class="cls-4" points="7.01 6.02 7 5.01 8.01 5 8.02 6.02 7.01 6.02"/><rect class="cls-4" x="7.01" y="5.01" width="1" height="1"/><polygon class="cls-2" points="7.01 5.02 7 4.01 8.01 4 8.02 5.02 7.01 5.02"/><rect class="cls-2" x="7.01" y="4.01" width="1" height="1"/><polygon class="cls-1" points="7.01 4.02 7 3.01 8.01 3 8.02 4.02 7.01 4.02"/><rect class="cls-1" x="7.01" y="3.01" width="1" height="1"/><polygon class="cls-8" points="6.01 14.02 6 13.01 7.01 13 7.02 14.02 6.01 14.02"/><rect class="cls-8" x="6.01" y="13.01" width="1" height="1"/><polygon class="cls-8" points="6.01 13.02 6 12.01 7.01 12 7.02 13.02 6.01 13.02"/><rect class="cls-8" x="6.01" y="12.01" width="1" height="1"/><polygon class="cls-9" points="6.01 12.02 6 11.01 7.01 11 7.02 12.02 6.01 12.02"/><rect class="cls-9" x="6.01" y="11.01" width="1" height="1"/><polygon class="cls-10" points="6.01 11.02 6 10.01 7.01 10 7.02 11.02 6.01 11.02"/><rect class="cls-10" x="6.01" y="10.01" width="1" height="1"/><polygon class="cls-10" points="6.01 10.02 6 9.01 7.01 9 7.02 10.02 6.01 10.02"/><rect class="cls-10" x="6.01" y="9.01" width="1" height="1"/><polygon class="cls-2" points="6.01 8.02 6 7.01 7.01 7 7.02 8.02 6.01 8.02"/><rect class="cls-2" x="6.01" y="7.01" width="1" height="1"/><polygon class="cls-4" points="6.01 7.02 6 6.01 7.01 6 7.02 7.02 6.01 7.02"/><rect class="cls-4" x="6.01" y="6.01" width="1" height="1"/><polygon class="cls-2" points="6.01 6.02 6 5.01 7.01 5 7.02 6.02 6.01 6.02"/><rect class="cls-2" x="6.01" y="5.01" width="1" height="1"/><polygon class="cls-1" points="6.01 5.02 6 4.01 7.01 4 7.02 5.02 6.01 5.02"/><rect class="cls-1" x="6.01" y="4.01" width="1" height="1"/><polygon class="cls-9" points="5.01 13.02 5 12.01 6.01 12 6.02 13.02 5.01 13.02"/><rect class="cls-9" x="5.01" y="12.01" width="1" height="1"/><polygon class="cls-10" points="5.01 12.02 5 11.01 6.01 11 6.02 12.02 5.01 12.02"/><rect class="cls-10" x="5.01" y="11.01" width="1" height="1"/><polygon class="cls-11" points="5.01 11.02 5 10.01 6.01 10 6.02 11.02 5.01 11.02"/><rect class="cls-11" x="5.01" y="10.01" width="1" height="1"/><polygon class="cls-11" points="5.01 10.02 5 9.01 6.01 9 6.02 10.02 5.01 10.02"/><rect class="cls-11" x="5.01" y="9.01" width="1" height="1"/><polygon class="cls-2" points="5.01 9.02 5 8.01 6.01 8 6.02 9.02 5.01 9.02"/><rect class="cls-2" x="5.01" y="8.01" width="1" height="1"/><polygon class="cls-4" points="5.01 8.02 5 7.01 6.01 7 6.02 8.02 5.01 8.02"/><rect class="cls-4" x="5.01" y="7.01" width="1" height="1"/><polygon class="cls-2" points="5.01 7.02 5 6.01 6.01 6 6.02 7.02 5.01 7.02"/><rect class="cls-2" x="5.01" y="6.01" width="1" height="1"/><polygon class="cls-1" points="5.01 6.02 5 5.01 6.01 5 6.02 6.02 5.01 6.02"/><rect class="cls-1" x="5.01" y="5.01" width="1" height="1"/><polygon class="cls-9" points="4.01 13.02 4 12.01 5.01 12 5.02 13.02 4.01 13.02"/><rect class="cls-9" x="4.01" y="12.01" width="1" height="1"/><polygon class="cls-10" points="4.01 12.02 4 11.01 5.01 11 5.02 12.02 4.01 12.02"/><rect class="cls-10" x="4.01" y="11.01" width="1" height="1"/><polygon class="cls-11" points="4.01 11.02 4 10.01 5.01 10 5.02 11.02 4.01 11.02"/><rect class="cls-11" x="4.01" y="10.01" width="1" height="1"/><polygon class="cls-11" points="4.01 10.02 4 9.01 5.01 9 5.02 10.02 4.01 10.02"/><rect class="cls-11" x="4.01" y="9.01" width="1" height="1"/><polygon class="cls-4" points="4.01 9.02 4 8.01 5.01 8 5.02 9.02 4.01 9.02"/><rect class="cls-4" x="4.01" y="8.01" width="1" height="1"/><polygon class="cls-2" points="4.01 8.02 4 7.01 5.01 7 5.02 8.02 4.01 8.02"/><rect class="cls-2" x="4.01" y="7.01" width="1" height="1"/><polygon class="cls-1" points="4.01 7.02 4 6.01 5.01 6 5.02 7.02 4.01 7.02"/><rect class="cls-1" x="4.01" y="6.01" width="1" height="1"/><polygon class="cls-2" points="3.01 11.02 3 10.01 4.01 10 4.02 11.02 3.01 11.02"/><rect class="cls-2" x="3.01" y="10.01" width="1" height="1"/><polygon class="cls-4" points="3.01 10.02 3 9.01 4.01 9 4.02 10.02 3.01 10.02"/><rect class="cls-4" x="3.01" y="9.01" width="1" height="1"/><polygon class="cls-2" points="3.01 9.02 3 8.01 4.01 8 4.02 9.02 3.01 9.02"/><rect class="cls-2" x="3.01" y="8.01" width="1" height="1"/><polygon class="cls-1" points="3.01 8.02 3 7.01 4.01 7 4.02 8.02 3.01 8.02"/><rect class="cls-1" x="3.01" y="7.01" width="1" height="1"/><polygon class="cls-2" points="2.01 12.02 2 11.01 3.01 11 3.02 12.02 2.01 12.02"/><rect class="cls-2" x="2.01" y="11.01" width="1" height="1"/><polygon class="cls-4" points="2.01 11.02 2 10.01 3.01 10 3.02 11.02 2.01 11.02"/><rect class="cls-4" x="2.01" y="10.01" width="1" height="1"/><polygon class="cls-2" points="2.01 10.02 2 9.01 3.01 9 3.02 10.02 2.01 10.02"/><rect class="cls-2" x="2.01" y="9.01" width="1" height="1"/><polygon class="cls-2" points="1.01 13.02 1 12.01 2.01 12 2.02 13.02 1.01 13.02"/><rect class="cls-2" x="1.01" y="12.01" width="1" height="1"/><polygon class="cls-4" points="1.01 12.02 1 11.01 2.01 11 2.02 12.02 1.01 12.02"/><rect class="cls-4" x="1.01" y="11.01" width="1" height="1"/><polygon class="cls-2" points="1.01 11.02 1 10.01 2.01 10 2.02 11.02 1.01 11.02"/><rect class="cls-2" x="1.01" y="10.01" width="1" height="1"/><polygon class="cls-2" points="0.01 13.02 0 12.01 1.01 12 1.02 13.02 0.01 13.02"/><rect class="cls-2" x="0.01" y="12.01" width="1" height="1"/><polygon class="cls-2" points="0.01 12.02 0 11.01 1.01 11 1.02 12.02 0.01 12.02"/><rect class="cls-2" x="0.01" y="11.01" width="1" height="1"/></g></g></g></svg>