<svg xmlns="http://www.w3.org/2000/svg" viewBox="0 0 16.02 15.02"><defs><style>.cls-1{fill:#f1bbbb;}.cls-2{fill:#f19c9f;}.cls-3{fill:#f39e9e;}.cls-4{fill:#d87c82;}.cls-5{fill:#ed1e2e;}.cls-6{fill:#630a11;}.cls-7{fill:#fff;}.cls-8{fill:#100c0d;}.cls-9{fill:#fdfcfd;}.cls-10{fill:#e88486;}.cls-11{fill:#f7c3c6;}.cls-12{fill:#954c4d;}.cls-13{fill:#f3a4a6;}</style></defs><title>pig</title><g id="Layer_2" data-name="Layer 2"><g id="Layer_1-2" data-name="Layer 1"><g id="_Group_" data-name="&lt;Group&gt;"><polygon class="cls-1" points="3.01 11.02 3 10.01 4.01 10 4.02 11.02 3.01 11.02"/><rect class="cls-1" x="3.01" y="10.01" width="1" height="1"/><polygon class="cls-2" points="2.01 11.02 2 10.01 3.01 10 3.02 11.02 2.01 11.02"/><rect class="cls-2" x="2.01" y="10.01" width="1" height="1"/><polygon class="cls-1" points="4.01 11.02 4 10.01 5.01 10 5.02 11.02 4.01 11.02"/><rect class="cls-1" x="4.01" y="10.01" width="1" height="1"/><polygon class="cls-3" points="1.01 11.02 1 10.01 2.01 10 2.02 11.02 1.01 11.02"/><rect class="cls-3" x="1.01" y="10.01" width="1" height="1"/><polygon class="cls-4" points="0.01 11.02 0 10.01 1.01 10 1.02 11.02 0.01 11.02"/><rect class="cls-4" x="0.01" y="10.01" width="1" height="1"/><polygon class="cls-4" points="9.01 11.02 9 10.01 10.01 10 10.02 11.02 9.01 11.02"/><rect class="cls-4" x="9.01" y="10.01" width="1" height="1"/><polygon class="cls-1" points="5.01 11.02 5 10.01 6.01 10 6.02 11.02 5.01 11.02"/><rect class="cls-1" x="5.01" y="10.01" width="1" height="1"/><polygon class="cls-1" points="6.01 11.02 6 10.01 7.01 10 7.02 11.02 6.01 11.02"/><rect class="cls-1" x="6.01" y="10.01" width="1" height="1"/><polygon class="cls-2" points="7.01 11.02 7 10.01 8.01 10 8.02 11.02 7.01 11.02"/><rect class="cls-2" x="7.01" y="10.01" width="1" height="1"/><polygon class="cls-2" points="8.01 11.02 8 10.01 9.01 10 9.02 11.02 8.01 11.02"/><rect class="cls-2" x="8.01" y="10.01" width="1" height="1"/><polygon class="cls-4" points="3.01 15.02 3 14.01 4.01 14 4.02 15.02 3.01 15.02"/><rect class="cls-4" x="3.01" y="14.01" width="1" height="1"/><polygon class="cls-4" points="2.01 15.02 2 14.01 3.01 14 3.02 15.02 2.01 15.02"/><rect class="cls-4" x="2.01" y="14.01" width="1" height="1"/><polygon class="cls-4" points="4.01 15.02 4 14.01 5.01 14 5.02 15.02 4.01 15.02"/><rect class="cls-4" x="4.01" y="14.01" width="1" height="1"/><polygon class="cls-4" points="1.01 15.02 1 14.01 2.01 14 2.02 15.02 1.01 15.02"/><rect class="cls-4" x="1.01" y="14.01" width="1" height="1"/><polygon class="cls-4" points="0.01 15.02 0 14.01 1.01 14 1.02 15.02 0.01 15.02"/><rect class="cls-4" x="0.01" y="14.01" width="1" height="1"/><polygon class="cls-4" points="9.01 15.02 9 14.01 10.01 14 10.02 15.02 9.01 15.02"/><rect class="cls-4" x="9.01" y="14.01" width="1" height="1"/><polygon class="cls-4" points="5.01 15.02 5 14.01 6.01 14 6.02 15.02 5.01 15.02"/><rect class="cls-4" x="5.01" y="14.01" width="1" height="1"/><polygon class="cls-4" points="6.01 15.02 6 14.01 7.01 14 7.02 15.02 6.01 15.02"/><rect class="cls-4" x="6.01" y="14.01" width="1" height="1"/><polygon class="cls-4" points="7.01 15.02 7 14.01 8.01 14 8.02 15.02 7.01 15.02"/><rect class="cls-4" x="7.01" y="14.01" width="1" height="1"/><polygon class="cls-4" points="8.01 15.02 8 14.01 9.01 14 9.02 15.02 8.01 15.02"/><rect class="cls-4" x="8.01" y="14.01" width="1" height="1"/><polygon class="cls-5" points="13.01 2.02 13 1.01 14.01 1 14.02 2.02 13.01 2.02"/><rect class="cls-5" x="13.01" y="1.01" width="1" height="1"/><polygon class="cls-5" points="14.01 2.02 14 1.01 15.01 1 15.02 2.02 14.01 2.02"/><rect class="cls-5" x="14.01" y="1.01" width="1" height="1"/><polygon class="cls-6" points="15.01 2.02 15 1.01 16.01 1 16.02 2.02 15.01 2.02"/><rect class="cls-6" x="15.01" y="1.01" width="1" height="1"/><polygon class="cls-6" points="9.01 2.02 9 1.01 10.01 1 10.02 2.02 9.01 2.02"/><rect class="cls-6" x="9.01" y="1.01" width="1" height="1"/><polygon class="cls-5" points="10.01 2.02 10 1.01 11.01 1 11.02 2.02 10.01 2.02"/><rect class="cls-5" x="10.01" y="1.01" width="1" height="1"/><polygon class="cls-5" points="11.01 2.02 11 1.01 12.01 1 12.02 2.02 11.01 2.02"/><rect class="cls-5" x="11.01" y="1.01" width="1" height="1"/><polygon class="cls-6" points="12.01 2.02 12 1.01 13.01 1 13.02 2.02 12.01 2.02"/><rect class="cls-6" x="12.01" y="1.01" width="1" height="1"/><polygon class="cls-4" points="3.01 6.02 3 5.01 4.01 5 4.02 6.02 3.01 6.02"/><rect class="cls-4" x="3.01" y="5.01" width="1" height="1"/><polygon class="cls-4" points="2.01 6.02 2 5.01 3.01 5 3.02 6.02 2.01 6.02"/><rect class="cls-4" x="2.01" y="5.01" width="1" height="1"/><polygon class="cls-4" points="4.01 6.02 4 5.01 5.01 5 5.02 6.02 4.01 6.02"/><rect class="cls-4" x="4.01" y="5.01" width="1" height="1"/><polygon class="cls-4" points="1.01 6.02 1 5.01 2.01 5 2.02 6.02 1.01 6.02"/><rect class="cls-4" x="1.01" y="5.01" width="1" height="1"/><polygon class="cls-4" points="0.01 6.02 0 5.01 1.01 5 1.02 6.02 0.01 6.02"/><rect class="cls-4" x="0.01" y="5.01" width="1" height="1"/><polygon class="cls-4" points="9.01 6.02 9 5.01 10.01 5 10.02 6.02 9.01 6.02"/><rect class="cls-4" x="9.01" y="5.01" width="1" height="1"/><polygon class="cls-6" points="12.01 6.02 12 5.01 13.01 5 13.02 6.02 12.01 6.02"/><rect class="cls-6" x="12.01" y="5.01" width="1" height="1"/><polygon class="cls-4" points="5.01 6.02 5 5.01 6.01 5 6.02 6.02 5.01 6.02"/><rect class="cls-4" x="5.01" y="5.01" width="1" height="1"/><polygon class="cls-4" points="6.01 6.02 6 5.01 7.01 5 7.02 6.02 6.01 6.02"/><rect class="cls-4" x="6.01" y="5.01" width="1" height="1"/><polygon class="cls-4" points="7.01 6.02 7 5.01 8.01 5 8.02 6.02 7.01 6.02"/><rect class="cls-4" x="7.01" y="5.01" width="1" height="1"/><polygon class="cls-4" points="8.01 6.02 8 5.01 9.01 5 9.02 6.02 8.01 6.02"/><rect class="cls-4" x="8.01" y="5.01" width="1" height="1"/><polygon class="cls-2" points="3.01 10.02 3 9.01 4.01 9 4.02 10.02 3.01 10.02"/><rect class="cls-2" x="3.01" y="9.01" width="1" height="1"/><polygon class="cls-7" points="2.01 10.02 2 9.01 3.01 9 3.02 10.02 2.01 10.02"/><rect class="cls-7" x="2.01" y="9.01" width="1" height="1"/><polygon class="cls-2" points="4.01 10.02 4 9.01 5.01 9 5.02 10.02 4.01 10.02"/><rect class="cls-2" x="4.01" y="9.01" width="1" height="1"/><polygon class="cls-8" points="1.01 10.02 1 9.01 2.01 9 2.02 10.02 1.01 10.02"/><rect class="cls-8" x="1.01" y="9.01" width="1" height="1"/><polygon class="cls-4" points="0.01 10.02 0 9.01 1.01 9 1.02 10.02 0.01 10.02"/><rect class="cls-4" x="0.01" y="9.01" width="1" height="1"/><polygon class="cls-4" points="9.01 10.02 9 9.01 10.01 9 10.02 10.02 9.01 10.02"/><rect class="cls-4" x="9.01" y="9.01" width="1" height="1"/><polygon class="cls-2" points="5.01 10.02 5 9.01 6.01 9 6.02 10.02 5.01 10.02"/><rect class="cls-2" x="5.01" y="9.01" width="1" height="1"/><polygon class="cls-2" points="6.01 10.02 6 9.01 7.01 9 7.02 10.02 6.01 10.02"/><rect class="cls-2" x="6.01" y="9.01" width="1" height="1"/><polygon class="cls-9" points="7.01 10.02 7 9.01 8.01 9 8.02 10.02 7.01 10.02"/><rect class="cls-9" x="7.01" y="9.01" width="1" height="1"/><polygon class="cls-8" points="8.01 10.02 8 9.01 9.01 9 9.02 10.02 8.01 10.02"/><rect class="cls-8" x="8.01" y="9.01" width="1" height="1"/><polygon class="cls-2" points="3.01 14.02 3 13.01 4.01 13 4.02 14.02 3.01 14.02"/><rect class="cls-2" x="3.01" y="13.01" width="1" height="1"/><polygon class="cls-2" points="2.01 14.02 2 13.01 3.01 13 3.02 14.02 2.01 14.02"/><rect class="cls-2" x="2.01" y="13.01" width="1" height="1"/><polygon class="cls-2" points="4.01 14.02 4 13.01 5.01 13 5.02 14.02 4.01 14.02"/><rect class="cls-2" x="4.01" y="13.01" width="1" height="1"/><polygon class="cls-3" points="1.01 14.02 1 13.01 2.01 13 2.02 14.02 1.01 14.02"/><rect class="cls-3" x="1.01" y="13.01" width="1" height="1"/><polygon class="cls-4" points="0.01 14.02 0 13.01 1.01 13 1.02 14.02 0.01 14.02"/><rect class="cls-4" x="0.01" y="13.01" width="1" height="1"/><polygon class="cls-4" points="9.01 14.02 9 13.01 10.01 13 10.02 14.02 9.01 14.02"/><rect class="cls-4" x="9.01" y="13.01" width="1" height="1"/><polygon class="cls-2" points="5.01 14.02 5 13.01 6.01 13 6.02 14.02 5.01 14.02"/><rect class="cls-2" x="5.01" y="13.01" width="1" height="1"/><polygon class="cls-2" points="6.01 14.02 6 13.01 7.01 13 7.02 14.02 6.01 14.02"/><rect class="cls-2" x="6.01" y="13.01" width="1" height="1"/><polygon class="cls-2" points="7.01 14.02 7 13.01 8.01 13 8.02 14.02 7.01 14.02"/><rect class="cls-2" x="7.01" y="13.01" width="1" height="1"/><polygon class="cls-2" points="8.01 14.02 8 13.01 9.01 13 9.02 14.02 8.01 14.02"/><rect class="cls-2" x="8.01" y="13.01" width="1" height="1"/><polygon class="cls-5" points="13.01 3.02 13 2.01 14.01 2 14.02 3.02 13.01 3.02"/><rect class="cls-5" x="13.01" y="2.01" width="1" height="1"/><polygon class="cls-5" points="14.01 3.02 14 2.01 15.01 2 15.02 3.02 14.01 3.02"/><rect class="cls-5" x="14.01" y="2.01" width="1" height="1"/><polygon class="cls-6" points="15.01 3.02 15 2.01 16.01 2 16.02 3.02 15.01 3.02"/><rect class="cls-6" x="15.01" y="2.01" width="1" height="1"/><polygon class="cls-6" points="9.01 3.02 9 2.01 10.01 2 10.02 3.02 9.01 3.02"/><rect class="cls-6" x="9.01" y="2.01" width="1" height="1"/><polygon class="cls-5" points="10.01 3.02 10 2.01 11.01 2 11.02 3.02 10.01 3.02"/><rect class="cls-5" x="10.01" y="2.01" width="1" height="1"/><polygon class="cls-5" points="11.01 3.02 11 2.01 12.01 2 12.02 3.02 11.01 3.02"/><rect class="cls-5" x="11.01" y="2.01" width="1" height="1"/><polygon class="cls-5" points="12.01 3.02 12 2.01 13.01 2 13.02 3.02 12.01 3.02"/><rect class="cls-5" x="12.01" y="2.01" width="1" height="1"/><polygon class="cls-10" points="3.01 7.02 3 6.01 4.01 6 4.02 7.02 3.01 7.02"/><rect class="cls-10" x="3.01" y="6.01" width="1" height="1"/><polygon class="cls-2" points="2.01 7.02 2 6.01 3.01 6 3.02 7.02 2.01 7.02"/><rect class="cls-2" x="2.01" y="6.01" width="1" height="1"/><polygon class="cls-2" points="4.01 7.02 4 6.01 5.01 6 5.02 7.02 4.01 7.02"/><rect class="cls-2" x="4.01" y="6.01" width="1" height="1"/><polygon class="cls-3" points="1.01 7.02 1 6.01 2.01 6 2.02 7.02 1.01 7.02"/><rect class="cls-3" x="1.01" y="6.01" width="1" height="1"/><polygon class="cls-4" points="0.01 7.02 0 6.01 1.01 6 1.02 7.02 0.01 7.02"/><rect class="cls-4" x="0.01" y="6.01" width="1" height="1"/><polygon class="cls-4" points="9.01 7.02 9 6.01 10.01 6 10.02 7.02 9.01 7.02"/><rect class="cls-4" x="9.01" y="6.01" width="1" height="1"/><polygon class="cls-2" points="5.01 7.02 5 6.01 6.01 6 6.02 7.02 5.01 7.02"/><rect class="cls-2" x="5.01" y="6.01" width="1" height="1"/><polygon class="cls-2" points="6.01 7.02 6 6.01 7.01 6 7.02 7.02 6.01 7.02"/><rect class="cls-2" x="6.01" y="6.01" width="1" height="1"/><polygon class="cls-2" points="7.01 7.02 7 6.01 8.01 6 8.02 7.02 7.01 7.02"/><rect class="cls-2" x="7.01" y="6.01" width="1" height="1"/><polygon class="cls-2" points="8.01 7.02 8 6.01 9.01 6 9.02 7.02 8.01 7.02"/><rect class="cls-2" x="8.01" y="6.01" width="1" height="1"/><polygon class="cls-2" points="3.01 9.02 3 8.01 4.01 8 4.02 9.02 3.01 9.02"/><rect class="cls-2" x="3.01" y="8.01" width="1" height="1"/><polygon class="cls-2" points="2.01 9.02 2 8.01 3.01 8 3.02 9.02 2.01 9.02"/><rect class="cls-2" x="2.01" y="8.01" width="1" height="1"/><polygon class="cls-2" points="4.01 9.02 4 8.01 5.01 8 5.02 9.02 4.01 9.02"/><rect class="cls-2" x="4.01" y="8.01" width="1" height="1"/><polygon class="cls-3" points="1.01 9.02 1 8.01 2.01 8 2.02 9.02 1.01 9.02"/><rect class="cls-3" x="1.01" y="8.01" width="1" height="1"/><polygon class="cls-4" points="0.01 9.02 0 8.01 1.01 8 1.02 9.02 0.01 9.02"/><rect class="cls-4" x="0.01" y="8.01" width="1" height="1"/><polygon class="cls-4" points="9.01 9.02 9 8.01 10.01 8 10.02 9.02 9.01 9.02"/><rect class="cls-4" x="9.01" y="8.01" width="1" height="1"/><polygon class="cls-2" points="5.01 9.02 5 8.01 6.01 8 6.02 9.02 5.01 9.02"/><rect class="cls-2" x="5.01" y="8.01" width="1" height="1"/><polygon class="cls-2" points="6.01 9.02 6 8.01 7.01 8 7.02 9.02 6.01 9.02"/><rect class="cls-2" x="6.01" y="8.01" width="1" height="1"/><polygon class="cls-2" points="7.01 9.02 7 8.01 8.01 8 8.02 9.02 7.01 9.02"/><rect class="cls-2" x="7.01" y="8.01" width="1" height="1"/><polygon class="cls-2" points="8.01 9.02 8 8.01 9.01 8 9.02 9.02 8.01 9.02"/><rect class="cls-2" x="8.01" y="8.01" width="1" height="1"/><polygon class="cls-11" points="3.01 13.02 3 12.01 4.01 12 4.02 13.02 3.01 13.02"/><rect class="cls-11" x="3.01" y="12.01" width="1" height="1"/><polygon class="cls-2" points="2.01 13.02 2 12.01 3.01 12 3.02 13.02 2.01 13.02"/><rect class="cls-2" x="2.01" y="12.01" width="1" height="1"/><polygon class="cls-11" points="4.01 13.02 4 12.01 5.01 12 5.02 13.02 4.01 13.02"/><rect class="cls-11" x="4.01" y="12.01" width="1" height="1"/><polygon class="cls-3" points="1.01 13.02 1 12.01 2.01 12 2.02 13.02 1.01 13.02"/><rect class="cls-3" x="1.01" y="12.01" width="1" height="1"/><polygon class="cls-4" points="0.01 13.02 0 12.01 1.01 12 1.02 13.02 0.01 13.02"/><rect class="cls-4" x="0.01" y="12.01" width="1" height="1"/><polygon class="cls-4" points="9.01 13.02 9 12.01 10.01 12 10.02 13.02 9.01 13.02"/><rect class="cls-4" x="9.01" y="12.01" width="1" height="1"/><polygon class="cls-11" points="5.01 13.02 5 12.01 6.01 12 6.02 13.02 5.01 13.02"/><rect class="cls-11" x="5.01" y="12.01" width="1" height="1"/><polygon class="cls-11" points="6.01 13.02 6 12.01 7.01 12 7.02 13.02 6.01 13.02"/><rect class="cls-11" x="6.01" y="12.01" width="1" height="1"/><polygon class="cls-2" points="7.01 13.02 7 12.01 8.01 12 8.02 13.02 7.01 13.02"/><rect class="cls-2" x="7.01" y="12.01" width="1" height="1"/><polygon class="cls-2" points="8.01 13.02 8 12.01 9.01 12 9.02 13.02 8.01 13.02"/><rect class="cls-2" x="8.01" y="12.01" width="1" height="1"/><polygon class="cls-5" points="13.01 4.02 13 3.01 14.01 3 14.02 4.02 13.01 4.02"/><rect class="cls-5" x="13.01" y="3.01" width="1" height="1"/><polygon class="cls-6" points="14.01 4.02 14 3.01 15.01 3 15.02 4.02 14.01 4.02"/><rect class="cls-6" x="14.01" y="3.01" width="1" height="1"/><polygon class="cls-6" points="10.01 4.02 10 3.01 11.01 3 11.02 4.02 10.01 4.02"/><rect class="cls-6" x="10.01" y="3.01" width="1" height="1"/><polygon class="cls-5" points="11.01 4.02 11 3.01 12.01 3 12.02 4.02 11.01 4.02"/><rect class="cls-5" x="11.01" y="3.01" width="1" height="1"/><polygon class="cls-5" points="12.01 4.02 12 3.01 13.01 3 13.02 4.02 12.01 4.02"/><rect class="cls-5" x="12.01" y="3.01" width="1" height="1"/><polygon class="cls-10" points="3.01 8.02 3 7.01 4.01 7 4.02 8.02 3.01 8.02"/><rect class="cls-10" x="3.01" y="7.01" width="1" height="1"/><polygon class="cls-2" points="2.01 8.02 2 7.01 3.01 7 3.02 8.02 2.01 8.02"/><rect class="cls-2" x="2.01" y="7.01" width="1" height="1"/><polygon class="cls-2" points="4.01 8.02 4 7.01 5.01 7 5.02 8.02 4.01 8.02"/><rect class="cls-2" x="4.01" y="7.01" width="1" height="1"/><polygon class="cls-3" points="1.01 8.02 1 7.01 2.01 7 2.02 8.02 1.01 8.02"/><rect class="cls-3" x="1.01" y="7.01" width="1" height="1"/><polygon class="cls-4" points="0.01 8.02 0 7.01 1.01 7 1.02 8.02 0.01 8.02"/><rect class="cls-4" x="0.01" y="7.01" width="1" height="1"/><polygon class="cls-4" points="9.01 8.02 9 7.01 10.01 7 10.02 8.02 9.01 8.02"/><rect class="cls-4" x="9.01" y="7.01" width="1" height="1"/><polygon class="cls-2" points="5.01 8.02 5 7.01 6.01 7 6.02 8.02 5.01 8.02"/><rect class="cls-2" x="5.01" y="7.01" width="1" height="1"/><polygon class="cls-2" points="6.01 8.02 6 7.01 7.01 7 7.02 8.02 6.01 8.02"/><rect class="cls-2" x="6.01" y="7.01" width="1" height="1"/><polygon class="cls-2" points="7.01 8.02 7 7.01 8.01 7 8.02 8.02 7.01 8.02"/><rect class="cls-2" x="7.01" y="7.01" width="1" height="1"/><polygon class="cls-2" points="8.01 8.02 8 7.01 9.01 7 9.02 8.02 8.01 8.02"/><rect class="cls-2" x="8.01" y="7.01" width="1" height="1"/><polygon class="cls-12" points="3.01 12.02 3 11.01 4.01 11 4.02 12.02 3.01 12.02"/><rect class="cls-12" x="3.01" y="11.01" width="1" height="1"/><polygon class="cls-2" points="2.01 12.02 2 11.01 3.01 11 3.02 12.02 2.01 12.02"/><rect class="cls-2" x="2.01" y="11.01" width="1" height="1"/><polygon class="cls-13" points="4.01 12.02 4 11.01 5.01 11 5.02 12.02 4.01 12.02"/><rect class="cls-13" x="4.01" y="11.01" width="1" height="1"/><polygon class="cls-3" points="1.01 12.02 1 11.01 2.01 11 2.02 12.02 1.01 12.02"/><rect class="cls-3" x="1.01" y="11.01" width="1" height="1"/><polygon class="cls-4" points="0.01 12.02 0 11.01 1.01 11 1.02 12.02 0.01 12.02"/><rect class="cls-4" x="0.01" y="11.01" width="1" height="1"/><polygon class="cls-4" points="9.01 12.02 9 11.01 10.01 11 10.02 12.02 9.01 12.02"/><rect class="cls-4" x="9.01" y="11.01" width="1" height="1"/><polygon class="cls-13" points="5.01 12.02 5 11.01 6.01 11 6.02 12.02 5.01 12.02"/><rect class="cls-13" x="5.01" y="11.01" width="1" height="1"/><polygon class="cls-12" points="6.01 12.02 6 11.01 7.01 11 7.02 12.02 6.01 12.02"/><rect class="cls-12" x="6.01" y="11.01" width="1" height="1"/><polygon class="cls-2" points="7.01 12.02 7 11.01 8.01 11 8.02 12.02 7.01 12.02"/><rect class="cls-2" x="7.01" y="11.01" width="1" height="1"/><polygon class="cls-2" points="8.01 12.02 8 11.01 9.01 11 9.02 12.02 8.01 12.02"/><rect class="cls-2" x="8.01" y="11.01" width="1" height="1"/><polygon class="cls-6" points="13.01 1.02 13 0.01 14.01 0 14.02 1.02 13.01 1.02"/><rect class="cls-6" x="13.01" y="0.01" width="1" height="1"/><polygon class="cls-6" points="14.01 1.02 14 0.01 15.01 0 15.02 1.02 14.01 1.02"/><rect class="cls-6" x="14.01" y="0.01" width="1" height="1"/><polygon class="cls-6" points="10.01 1.02 10 0.01 11.01 0 11.02 1.02 10.01 1.02"/><rect class="cls-6" x="10.01" y="0.01" width="1" height="1"/><polygon class="cls-6" points="11.01 1.02 11 0.01 12.01 0 12.02 1.02 11.01 1.02"/><rect class="cls-6" x="11.01" y="0.01" width="1" height="1"/><polygon class="cls-6" points="13.01 5.02 13 4.01 14.01 4 14.02 5.02 13.01 5.02"/><rect class="cls-6" x="13.01" y="4.01" width="1" height="1"/><polygon class="cls-6" points="11.01 5.02 11 4.01 12.01 4 12.02 5.02 11.01 5.02"/><rect class="cls-6" x="11.01" y="4.01" width="1" height="1"/><polygon class="cls-5" points="12.01 5.02 12 4.01 13.01 4 13.02 5.02 12.01 5.02"/><rect class="cls-5" x="12.01" y="4.01" width="1" height="1"/></g></g></g></svg>