<svg xmlns="http://www.w3.org/2000/svg" viewBox="0 0 8.02 13.02"><defs><style>.cls-1{fill:#000100;}.cls-2{fill:#7c5abe;}.cls-3{fill:#3d1d79;}</style></defs><title>wrench</title><g id="Layer_2" data-name="Layer 2"><g id="Layer_1-2" data-name="Layer 1"><g id="_Group_" data-name="&lt;Group&gt;"><polygon class="cls-1" points="7.01 4.02 7 3.01 8.01 3 8.02 4.02 7.01 4.02"/><rect class="cls-1" x="7.01" y="3.01" width="1" height="1"/><polygon class="cls-1" points="7.01 3.02 7 2.01 8.01 2 8.02 3.02 7.01 3.02"/><rect class="cls-1" x="7.01" y="2.01" width="1" height="1"/><polygon class="cls-1" points="7.01 2.02 7 1.01 8.01 1 8.02 2.02 7.01 2.02"/><rect class="cls-1" x="7.01" y="1.01" width="1" height="1"/><polygon class="cls-1" points="6.01 5.02 6 4.01 7.01 4 7.02 5.02 6.01 5.02"/><rect class="cls-1" x="6.01" y="4.01" width="1" height="1"/><polygon class="cls-2" points="6.01 4.02 6 3.01 7.01 3 7.02 4.02 6.01 4.02"/><rect class="cls-2" x="6.01" y="3.01" width="1" height="1"/><polygon class="cls-2" points="6.01 3.02 6 2.01 7.01 2 7.02 3.02 6.01 3.02"/><rect class="cls-2" x="6.01" y="2.01" width="1" height="1"/><polygon class="cls-2" points="6.01 2.02 6 1.01 7.01 1 7.02 2.02 6.01 2.02"/><rect class="cls-2" x="6.01" y="1.01" width="1" height="1"/><polygon class="cls-1" points="6.01 1.02 6 0.01 7.01 0 7.02 1.02 6.01 1.02"/><rect class="cls-1" x="6.01" y="0.01" width="1" height="1"/><polygon class="cls-1" points="5.01 12.02 5 11.01 6.01 11 6.02 12.02 5.01 12.02"/><rect class="cls-1" x="5.01" y="11.01" width="1" height="1"/><polygon class="cls-1" points="5.01 11.02 5 10.01 6.01 10 6.02 11.02 5.01 11.02"/><rect class="cls-1" x="5.01" y="10.01" width="1" height="1"/><polygon class="cls-1" points="5.01 10.02 5 9.01 6.01 9 6.02 10.02 5.01 10.02"/><rect class="cls-1" x="5.01" y="9.01" width="1" height="1"/><polygon class="cls-1" points="5.01 9.02 5 8.01 6.01 8 6.02 9.02 5.01 9.02"/><rect class="cls-1" x="5.01" y="8.01" width="1" height="1"/><polygon class="cls-1" points="5.01 8.02 5 7.01 6.01 7 6.02 8.02 5.01 8.02"/><rect class="cls-1" x="5.01" y="7.01" width="1" height="1"/><polygon class="cls-1" points="5.01 7.02 5 6.01 6.01 6 6.02 7.02 5.01 7.02"/><rect class="cls-1" x="5.01" y="6.01" width="1" height="1"/><polygon class="cls-1" points="5.01 6.02 5 5.01 6.01 5 6.02 6.02 5.01 6.02"/><rect class="cls-1" x="5.01" y="5.01" width="1" height="1"/><polygon class="cls-2" points="5.01 5.02 5 4.01 6.01 4 6.02 5.02 5.01 5.02"/><rect class="cls-2" x="5.01" y="4.01" width="1" height="1"/><polygon class="cls-2" points="5.01 4.02 5 3.01 6.01 3 6.02 4.02 5.01 4.02"/><rect class="cls-2" x="5.01" y="3.01" width="1" height="1"/><polygon class="cls-1" points="5.01 3.02 5 2.01 6.01 2 6.02 3.02 5.01 3.02"/><rect class="cls-1" x="5.01" y="2.01" width="1" height="1"/><polygon class="cls-1" points="5.01 2.02 5 1.01 6.01 1 6.02 2.02 5.01 2.02"/><rect class="cls-1" x="5.01" y="1.01" width="1" height="1"/><polygon class="cls-1" points="5.01 1.02 5 0.01 6.01 0 6.02 1.02 5.01 1.02"/><rect class="cls-1" x="5.01" y="0.01" width="1" height="1"/><polygon class="cls-1" points="4.01 13.02 4 12.01 5.01 12 5.02 13.02 4.01 13.02"/><rect class="cls-1" x="4.01" y="12.01" width="1" height="1"/><polygon class="cls-3" points="4.01 12.02 4 11.01 5.01 11 5.02 12.02 4.01 12.02"/><rect class="cls-3" x="4.01" y="11.01" width="1" height="1"/><polygon class="cls-3" points="4.01 11.02 4 10.01 5.01 10 5.02 11.02 4.01 11.02"/><rect class="cls-3" x="4.01" y="10.01" width="1" height="1"/><polygon class="cls-3" points="4.01 10.02 4 9.01 5.01 9 5.02 10.02 4.01 10.02"/><rect class="cls-3" x="4.01" y="9.01" width="1" height="1"/><polygon class="cls-3" points="4.01 9.02 4 8.01 5.01 8 5.02 9.02 4.01 9.02"/><rect class="cls-3" x="4.01" y="8.01" width="1" height="1"/><polygon class="cls-2" points="4.01 8.02 4 7.01 5.01 7 5.02 8.02 4.01 8.02"/><rect class="cls-2" x="4.01" y="7.01" width="1" height="1"/><polygon class="cls-2" points="4.01 7.02 4 6.01 5.01 6 5.02 7.02 4.01 7.02"/><rect class="cls-2" x="4.01" y="6.01" width="1" height="1"/><polygon class="cls-2" points="4.01 6.02 4 5.01 5.01 5 5.02 6.02 4.01 6.02"/><rect class="cls-2" x="4.01" y="5.01" width="1" height="1"/><polygon class="cls-2" points="4.01 5.02 4 4.01 5.01 4 5.02 5.02 4.01 5.02"/><rect class="cls-2" x="4.01" y="4.01" width="1" height="1"/><polygon class="cls-1" points="4.01 4.02 4 3.01 5.01 3 5.02 4.02 4.01 4.02"/><rect class="cls-1" x="4.01" y="3.01" width="1" height="1"/><polygon class="cls-1" points="3.01 13.02 3 12.01 4.01 12 4.02 13.02 3.01 13.02"/><rect class="cls-1" x="3.01" y="12.01" width="1" height="1"/><polygon class="cls-2" points="3.01 12.02 3 11.01 4.01 11 4.02 12.02 3.01 12.02"/><rect class="cls-2" x="3.01" y="11.01" width="1" height="1"/><polygon class="cls-2" points="3.01 11.02 3 10.01 4.01 10 4.02 11.02 3.01 11.02"/><rect class="cls-2" x="3.01" y="10.01" width="1" height="1"/><polygon class="cls-2" points="3.01 10.02 3 9.01 4.01 9 4.02 10.02 3.01 10.02"/><rect class="cls-2" x="3.01" y="9.01" width="1" height="1"/><polygon class="cls-2" points="3.01 9.02 3 8.01 4.01 8 4.02 9.02 3.01 9.02"/><rect class="cls-2" x="3.01" y="8.01" width="1" height="1"/><polygon class="cls-2" points="3.01 8.02 3 7.01 4.01 7 4.02 8.02 3.01 8.02"/><rect class="cls-2" x="3.01" y="7.01" width="1" height="1"/><polygon class="cls-2" points="3.01 7.02 3 6.01 4.01 6 4.02 7.02 3.01 7.02"/><rect class="cls-2" x="3.01" y="6.01" width="1" height="1"/><polygon class="cls-2" points="3.01 6.02 3 5.01 4.01 5 4.02 6.02 3.01 6.02"/><rect class="cls-2" x="3.01" y="5.01" width="1" height="1"/><polygon class="cls-2" points="3.01 5.02 3 4.01 4.01 4 4.02 5.02 3.01 5.02"/><rect class="cls-2" x="3.01" y="4.01" width="1" height="1"/><polygon class="cls-1" points="3.01 4.02 3 3.01 4.01 3 4.02 4.02 3.01 4.02"/><rect class="cls-1" x="3.01" y="3.01" width="1" height="1"/><polygon class="cls-1" points="2.01 12.02 2 11.01 3.01 11 3.02 12.02 2.01 12.02"/><rect class="cls-1" x="2.01" y="11.01" width="1" height="1"/><polygon class="cls-1" points="2.01 11.02 2 10.01 3.01 10 3.02 11.02 2.01 11.02"/><rect class="cls-1" x="2.01" y="10.01" width="1" height="1"/><polygon class="cls-1" points="2.01 10.02 2 9.01 3.01 9 3.02 10.02 2.01 10.02"/><rect class="cls-1" x="2.01" y="9.01" width="1" height="1"/><polygon class="cls-1" points="2.01 9.02 2 8.01 3.01 8 3.02 9.02 2.01 9.02"/><rect class="cls-1" x="2.01" y="8.01" width="1" height="1"/><polygon class="cls-1" points="2.01 8.02 2 7.01 3.01 7 3.02 8.02 2.01 8.02"/><rect class="cls-1" x="2.01" y="7.01" width="1" height="1"/><polygon class="cls-1" points="2.01 7.02 2 6.01 3.01 6 3.02 7.02 2.01 7.02"/><rect class="cls-1" x="2.01" y="6.01" width="1" height="1"/><polygon class="cls-1" points="2.01 6.02 2 5.01 3.01 5 3.02 6.02 2.01 6.02"/><rect class="cls-1" x="2.01" y="5.01" width="1" height="1"/><polygon class="cls-2" points="2.01 5.02 2 4.01 3.01 4 3.02 5.02 2.01 5.02"/><rect class="cls-2" x="2.01" y="4.01" width="1" height="1"/><polygon class="cls-2" points="2.01 4.02 2 3.01 3.01 3 3.02 4.02 2.01 4.02"/><rect class="cls-2" x="2.01" y="3.01" width="1" height="1"/><polygon class="cls-1" points="2.01 3.02 2 2.01 3.01 2 3.02 3.02 2.01 3.02"/><rect class="cls-1" x="2.01" y="2.01" width="1" height="1"/><polygon class="cls-1" points="2.01 2.02 2 1.01 3.01 1 3.02 2.02 2.01 2.02"/><rect class="cls-1" x="2.01" y="1.01" width="1" height="1"/><polygon class="cls-1" points="2.01 1.02 2 0.01 3.01 0 3.02 1.02 2.01 1.02"/><rect class="cls-1" x="2.01" y="0.01" width="1" height="1"/><polygon class="cls-1" points="1.01 5.02 1 4.01 2.01 4 2.02 5.02 1.01 5.02"/><rect class="cls-1" x="1.01" y="4.01" width="1" height="1"/><polygon class="cls-2" points="1.01 4.02 1 3.01 2.01 3 2.02 4.02 1.01 4.02"/><rect class="cls-2" x="1.01" y="3.01" width="1" height="1"/><polygon class="cls-2" points="1.01 3.02 1 2.01 2.01 2 2.02 3.02 1.01 3.02"/><rect class="cls-2" x="1.01" y="2.01" width="1" height="1"/><polygon class="cls-2" points="1.01 2.02 1 1.01 2.01 1 2.02 2.02 1.01 2.02"/><rect class="cls-2" x="1.01" y="1.01" width="1" height="1"/><polygon class="cls-1" points="1.01 1.02 1 0.01 2.01 0 2.02 1.02 1.01 1.02"/><rect class="cls-1" x="1.01" y="0.01" width="1" height="1"/><polygon class="cls-1" points="0.01 4.02 0 3.01 1.01 3 1.02 4.02 0.01 4.02"/><rect class="cls-1" x="0.01" y="3.01" width="1" height="1"/><polygon class="cls-1" points="0.01 3.02 0 2.01 1.01 2 1.02 3.02 0.01 3.02"/><rect class="cls-1" x="0.01" y="2.01" width="1" height="1"/><polygon class="cls-1" points="0.01 2.02 0 1.01 1.01 1 1.02 2.02 0.01 2.02"/><rect class="cls-1" x="0.01" y="1.01" width="1" height="1"/></g></g></g></svg>